<svg width="41" height="40" viewBox="0 0 41 40" fill="none" xmlns="http://www.w3.org/2000/svg">
<g clip-path="url(#clip0_30_5545)">
<g clip-path="url(#clip1_30_5545)">
<path d="M36.8902 33.0891C35.0602 33.0891 33.9602 32.1491 33.9102 30.8391H35.5902C35.5902 31.2591 35.8502 31.8291 36.9502 31.8891C37.7402 31.8891 38.0502 31.4691 38.0502 31.0991C38.0002 30.5791 37.3202 30.5191 36.6402 30.4191C35.9602 30.3191 35.3802 30.1591 34.9102 29.9491C34.3302 29.6391 33.9702 29.0591 33.9702 28.3791C33.9702 27.1791 34.9602 26.2891 36.6902 26.2891C38.4202 26.2891 39.4102 27.1791 39.4602 28.4391H37.8402C37.7902 28.1291 37.7402 27.5491 36.7902 27.5491C36.1102 27.5491 35.7402 27.6491 35.6402 28.1291C35.6402 28.8091 37.0002 28.7591 38.1002 29.0691C39.0902 29.3291 39.7802 29.9591 39.7802 30.8491C39.8802 32.4691 38.5202 33.0991 36.9002 33.0991" fill="white"/>
<path d="M5.22021 22.0896L10.9202 18.8496L13.9602 24.0796H6.32022L5.22021 22.0896Z" fill="white"/>
<path d="M17.9901 26.3301H16.3701V32.9301H17.9901V26.3301Z" fill="white"/>
<path d="M4.42979 33.0891C2.59978 33.0891 1.02979 31.5691 1.02979 29.6891C1.02979 27.8091 2.54979 26.2891 4.47979 26.2891C5.20979 26.2891 5.88979 26.4991 6.41979 26.8691V26.3491H8.03979V32.9491H6.41979V32.5791C5.83979 32.8891 5.21979 33.0991 4.42979 33.0991M2.59979 29.6991C2.59979 30.6891 3.48979 31.5791 4.47979 31.5791C5.52979 31.5791 6.35979 30.7391 6.35979 29.6991C6.35979 28.6591 5.46979 27.8191 4.47979 27.8191C3.48979 27.8191 2.59979 28.6591 2.59979 29.6991Z" fill="white"/>
<path d="M26.47 24.0802L18.46 10.2102L24.22 6.91016L34.16 24.0802H26.47Z" fill="white"/>
<path d="M12.0198 33.0896C10.1398 33.0896 8.56982 31.5696 8.56982 29.6396C8.56982 27.7096 10.0898 26.2896 12.0198 26.2896C12.7498 26.2896 13.3798 26.4996 13.9598 26.8696V24.0996H15.5798V32.9496H13.9598V32.5796C13.3798 32.8896 12.7598 33.0996 12.0198 33.0996M10.1398 29.6996C10.1398 30.6896 11.0298 31.5796 12.0198 31.5796C13.0098 31.5796 13.8998 30.7396 13.8998 29.6996C13.8998 28.6596 13.0098 27.8196 12.0198 27.8196C11.0298 27.7696 10.1398 28.6596 10.1398 29.6996Z" fill="white"/>
<path d="M11.9199 16.2302L17.6699 12.9902L24.1099 24.0802H18.0399V25.7102H16.3699V24.0802L11.9199 16.2302Z" fill="white"/>
<path d="M29.7098 33.0902C27.8298 33.0902 26.2598 31.5702 26.2598 29.6402C26.2598 27.7102 27.7798 26.2402 29.7098 26.2402C30.4398 26.2402 31.1198 26.4502 31.6498 26.8202V26.3002H33.2698V32.9002H31.6498V32.5902C31.0698 32.9002 30.3898 33.1102 29.7098 33.1102M27.8298 29.7102C27.8298 30.7002 28.7198 31.5902 29.7098 31.5902C30.6998 31.5902 31.5898 30.7502 31.5898 29.7102C31.5898 28.6702 30.7498 27.8302 29.7098 27.8302C28.6698 27.8302 27.8298 28.6702 27.8298 29.7102Z" fill="white"/>
<path d="M24.1102 24.0801H25.7302V32.9301H24.1102V32.5101C23.5302 32.8801 22.8502 33.0901 22.1702 33.0901C20.2902 33.0901 18.7202 31.5701 18.7202 29.6401C18.7202 27.7101 20.2402 26.2401 22.1702 26.2401C22.9602 26.2401 23.5802 26.4501 24.1102 26.8201C24.1102 26.8701 24.1102 24.1001 24.1102 24.1001V24.0801ZM20.2902 29.6801C20.2902 30.6701 21.1802 31.5601 22.1702 31.5601C23.2202 31.5601 24.0502 30.7201 24.0502 29.6801C24.0502 28.6401 23.1602 27.8001 22.1702 27.8001C21.1802 27.7501 20.2902 28.6401 20.2902 29.6801Z" fill="white"/>
</g>
</g>
<defs>
<clipPath id="clip0_30_5545">
<rect width="40.8" height="40" fill="white"/>
</clipPath>
<clipPath id="clip1_30_5545">
<rect width="40.8" height="40" fill="white"/>
</clipPath>
</defs>
</svg>
