<svg width="65" height="40" viewBox="0 0 65 40" fill="none" xmlns="http://www.w3.org/2000/svg">
<g clip-path="url(#clip0_30_5557)">
<g clip-path="url(#clip1_30_5557)">
<path fill-rule="evenodd" clip-rule="evenodd" d="M34.1719 15.5019C34.1719 16.1618 33.662 16.6818 32.9921 16.6818C32.3222 16.6818 31.8123 16.1718 31.8123 15.5019C31.8123 14.832 32.3222 14.3221 32.9921 14.3221C33.652 14.3221 34.1719 14.832 34.1719 15.5019ZM29.3127 17.8516V18.1615C29.3127 18.1615 28.7528 17.4416 27.573 17.4416C25.5833 17.4416 24.0435 18.9214 24.0435 21.0211C24.0435 23.1207 25.5733 24.6005 27.573 24.6005C28.8028 24.6005 29.3127 23.8306 29.3127 23.8306V24.1406C29.3127 24.2906 29.4127 24.4005 29.5727 24.4005H31.0524V17.6016H29.5727C29.4227 17.6016 29.3127 17.7516 29.3127 17.8616V17.8516ZM29.3127 22.2009C29.0527 22.6108 28.4928 22.9708 27.8329 22.9708C26.6531 22.9708 25.7833 22.2509 25.7833 21.0311C25.7833 19.8113 26.6531 19.0914 27.8329 19.0914C28.4428 19.0914 29.0627 19.4513 29.3127 19.8613V22.2109V22.2009ZM32.1223 17.6016H33.862V24.4005H32.1223V17.6016ZM58.0882 17.4516C56.9084 17.4516 56.3485 18.1715 56.3485 18.1715V14.3421H54.6087V24.4105H56.0885C56.2385 24.4105 56.3485 24.3106 56.3485 24.1506V23.8406C56.3485 23.8406 56.9084 24.6105 58.0882 24.6105C60.0779 24.6105 61.6176 23.0808 61.6176 21.0311C61.6176 18.9814 60.0379 17.4516 58.0882 17.4516ZM57.7782 22.9708C57.1183 22.9708 56.5984 22.6108 56.2985 22.2009V19.8013C56.5584 19.4413 57.1683 19.0314 57.7782 19.0314C58.9581 19.0314 59.8279 19.7513 59.8279 20.9711C59.8279 22.1909 58.9581 22.9608 57.7782 22.9608V22.9708ZM53.6889 20.3612V24.4005H51.9492V20.5711C51.9492 19.4513 51.5892 18.9914 50.6194 18.9914C50.1094 18.9914 49.5495 19.2514 49.1896 19.6513V24.4005H47.4499V17.6016H48.8296C48.9796 17.6016 49.0896 17.7016 49.0896 17.8616V18.1715C49.5995 17.6616 50.2694 17.4516 50.9293 17.4516C51.6992 17.4516 52.3091 17.6516 52.819 18.1115C53.4289 18.5715 53.6889 19.2314 53.6889 20.3612ZM43.2605 17.4516C42.0807 17.4516 41.5208 18.1715 41.5208 18.1715V14.3421H39.7311V24.4105H41.2108C41.3608 24.4105 41.4708 24.3106 41.4708 24.1506V23.8406C41.4708 23.8406 42.0307 24.6105 43.2105 24.6105C45.2002 24.6105 46.74 23.0808 46.74 21.0311C46.74 18.9314 45.2102 17.4516 43.2605 17.4516ZM42.9506 22.9708C42.2907 22.9708 41.7708 22.6108 41.4708 22.2009V19.8013C41.7308 19.4413 42.3407 19.0314 42.9506 19.0314C44.1304 19.0314 45.0002 19.7513 45.0002 20.9711C45.0002 22.1909 44.1304 22.9608 42.9506 22.9608V22.9708ZM38.2513 17.4516C38.7612 17.4516 39.0712 17.5516 39.0712 17.5516V19.1914C39.0712 19.1914 37.6414 18.6814 36.7215 19.7513V24.5005H34.9818V17.6016H36.4616C36.6116 17.6016 36.7215 17.7016 36.7215 17.8616V18.1715C36.9815 17.7616 37.6914 17.4516 38.2513 17.4516ZM20.2041 23.7906C20.1042 23.5907 20.0042 23.3307 19.9442 23.1307C19.7942 22.8208 19.6342 22.5208 19.5342 22.2109C18.3044 19.5013 16.9247 16.7417 15.5449 14.0322L15.4949 13.9322C15.3449 13.6722 15.1849 13.3723 15.0349 13.0623C14.835 12.7524 14.675 12.4024 14.3751 12.0925C13.8151 11.3726 12.9453 10.9727 12.0754 10.9727C11.1556 10.9727 10.3357 11.3826 9.77577 12.0425C9.51582 12.3524 9.31585 12.7024 9.11588 13.0123C8.9659 13.3223 8.80593 13.5722 8.65595 13.8822L8.60596 13.9822C7.22618 16.6918 5.84639 19.4513 4.61659 22.1609V22.2109C4.5166 22.5208 4.35663 22.8208 4.20665 23.1307C4.10667 23.3307 4.00668 23.5407 3.94669 23.7906C3.68673 24.4505 3.63674 25.1204 3.74672 25.7303C3.94669 27.1101 4.86655 28.2399 6.09635 28.7499C6.55628 28.9498 7.0662 29.0598 7.57612 29.0598C7.7261 29.0598 7.88607 29.0598 8.03605 29.0098C8.64595 28.9598 9.26585 28.7499 9.82577 28.3999C10.5956 27.99 11.2555 27.3801 12.0754 26.5102C12.8953 27.3801 13.6052 27.99 14.3251 28.3999C14.935 28.7599 15.5549 28.9598 16.1148 29.0098C16.2648 29.0098 16.4247 29.0598 16.5747 29.0598C17.0846 29.0598 17.5945 28.9598 18.0545 28.7499C19.3343 28.2399 20.2041 27.0601 20.4041 25.7303C20.5041 25.1204 20.4041 24.4505 20.2041 23.7906ZM12.0254 24.7605C11.0556 23.5307 10.3857 22.3609 10.1857 21.391C10.0857 20.9811 10.0857 20.6211 10.1357 20.2712C10.1857 19.9612 10.2857 19.7113 10.4457 19.5013C10.8056 18.9914 11.3655 18.6814 12.0254 18.6814C12.6853 18.6814 13.3052 18.9914 13.6052 19.5013C13.7551 19.7013 13.8651 19.9612 13.9151 20.2712C13.9651 20.5811 13.9651 20.9911 13.8651 21.391C13.6052 22.3609 12.9953 23.4907 12.0254 24.7605ZM19.2343 25.5804C19.1343 26.5002 18.4644 27.3201 17.5945 27.68C17.1346 27.88 16.6747 27.94 16.2148 27.88C15.7548 27.82 15.2949 27.68 14.835 27.4201C14.1751 27.0601 13.5052 26.5002 12.7853 25.6803C13.9651 24.2006 14.725 22.8708 14.985 21.691C15.0849 21.1311 15.1349 20.6211 15.0849 20.1612C15.035 19.7013 14.825 19.2914 14.575 18.9314C14.0151 18.1115 13.0953 17.6516 12.0154 17.6516C10.9356 17.6516 10.0257 18.1615 9.45583 18.9314C9.19587 19.2914 9.04589 19.7013 8.94591 20.1612C8.89591 20.6211 8.89591 21.1311 9.04589 21.641C9.30585 22.8208 10.0657 24.2006 11.2455 25.6803C10.4757 26.5002 9.81577 27.0601 9.19587 27.4201C8.73594 27.68 8.27601 27.83 7.81608 27.88C7.30616 27.93 6.84623 27.88 6.4363 27.68C5.56644 27.3201 4.90654 26.5002 4.79656 25.5804C4.74656 25.1204 4.79656 24.6605 4.94653 24.1506C4.99653 23.9506 5.09651 23.7906 5.20649 23.5907C5.30648 23.2807 5.46645 22.9808 5.61643 22.6708V22.6208C6.84624 19.9113 8.22602 17.1517 9.6058 14.4921L9.65579 14.3921C9.80577 14.1322 9.96574 13.8322 10.1157 13.5722C10.2657 13.2623 10.4257 13.0123 10.6256 12.7524C10.9856 12.2924 11.4955 12.0925 12.0554 12.0925C12.6153 12.0925 13.1252 12.3524 13.4852 12.7524C13.6852 13.0123 13.8451 13.2623 13.9951 13.5722C14.1451 13.8322 14.3051 14.1322 14.455 14.3921L14.505 14.4921C15.8848 17.2017 17.2146 19.9612 18.4944 22.6208C18.6444 22.9308 18.7544 23.2307 18.9043 23.5407C19.0043 23.7407 19.1043 23.9506 19.1643 24.1006C19.2643 24.6605 19.3143 25.1204 19.2143 25.5804H19.2343Z" fill="white"/>
</g>
</g>
<defs>
<clipPath id="clip0_30_5557">
<rect width="63.7" height="40" fill="white" transform="translate(0.817383)"/>
</clipPath>
<clipPath id="clip1_30_5557">
<rect width="63.7" height="40" fill="white" transform="translate(0.817383)"/>
</clipPath>
</defs>
</svg>
