<svg width="64" height="40" viewBox="0 0 64 40" fill="none" xmlns="http://www.w3.org/2000/svg">
<g clip-path="url(#clip0_30_5565)">
<g clip-path="url(#clip1_30_5565)">
<path d="M3.34091 12.9824C3.34091 12.9824 3.34091 13.0624 3.34091 13.1024C3.34091 14.6222 3.34091 16.1519 3.34091 17.6717C3.34091 17.7117 3.34091 17.7517 3.34091 17.7917C3.46089 17.7617 3.56087 17.7217 3.67086 17.7017C3.81083 17.6717 3.96081 17.6517 4.10079 17.6517C5.74053 17.6517 7.38027 17.6517 9.02002 17.6517C9.53994 17.6517 9.99986 17.8417 10.3998 18.1816C10.8297 18.5515 11.0797 19.0315 11.1697 19.5814C11.1797 19.6614 11.1897 19.7514 11.1897 19.8413C11.1897 21.5011 11.1897 23.1608 11.1897 24.8106C11.1897 25.3505 10.9797 25.8304 10.6298 26.2403C10.3798 26.5303 10.0699 26.7403 9.70991 26.8802C9.49994 26.9602 9.28997 27.0002 9.07001 27.0002C7.41027 27.0002 5.74053 27.0002 4.08079 27.0002C3.63086 27.0002 3.23093 26.8502 2.87098 26.6003C2.43105 26.2903 2.1411 25.8604 2.00112 25.3505C1.96113 25.2205 1.95113 25.0905 1.93113 24.9605C1.93113 24.9505 1.92113 24.9405 1.91113 24.9305C1.91113 20.9512 1.91113 16.9718 1.91113 12.9924C2.38106 12.9924 2.85099 12.9924 3.32091 12.9924L3.34091 12.9824ZM6.5704 25.6004C7.15031 25.6004 7.73022 25.6004 8.31013 25.6004C8.43011 25.6004 8.55009 25.6004 8.66007 25.5704C9.34997 25.4105 9.79989 24.7906 9.79989 24.1307C9.79989 22.9509 9.79989 21.761 9.79989 20.5812C9.79989 20.4712 9.7899 20.3513 9.7599 20.2413C9.60992 19.5814 9.02002 19.1015 8.33013 19.1115C7.15031 19.1215 5.9705 19.1115 4.79068 19.1115C4.22077 19.1115 3.80084 19.4014 3.53088 19.8913C3.4009 20.1313 3.35091 20.3913 3.35091 20.6612C3.35091 21.751 3.35091 22.8309 3.35091 23.9207C3.35091 24.0307 3.35091 24.1407 3.35091 24.2407C3.3909 24.7006 3.59087 25.0605 3.96081 25.3405C4.22077 25.5305 4.51072 25.6104 4.83067 25.6104C5.41058 25.6104 5.99049 25.6104 6.5704 25.6104V25.6004Z" fill="white"/>
<path d="M62.2718 24.871C62.2618 24.941 62.2518 25.001 62.2418 25.0709C62.1818 25.4809 62.0218 25.8508 61.7618 26.1708C61.4319 26.5807 61.012 26.8507 60.502 26.9606C60.3821 26.9806 60.2721 27.0006 60.1521 27.0006C58.4824 27.0006 56.8126 27.0006 55.1429 27.0006C54.653 27.0006 54.213 26.8207 53.8331 26.5107C53.3832 26.1408 53.1232 25.6609 53.0232 25.0909C53.0032 24.971 52.9932 24.851 52.9932 24.741C52.9932 23.1313 52.9832 21.5215 52.9932 19.9218C52.9932 19.0119 53.4331 18.322 54.233 17.8921C54.523 17.7321 54.8529 17.6621 55.1829 17.6621C56.8026 17.6621 58.4324 17.6621 60.0521 17.6621C60.562 17.6621 61.022 17.8321 61.4119 18.152C61.8918 18.542 62.1618 19.0519 62.2418 19.6518C62.2418 19.7018 62.2518 19.7418 62.2618 19.7918V24.881L62.2718 24.871ZM57.6425 25.6009C58.2124 25.6009 58.7923 25.6009 59.3622 25.6009C59.4422 25.6009 59.5222 25.6009 59.6022 25.5909C60.3121 25.5009 60.862 24.861 60.862 24.1511C60.862 22.9713 60.862 21.8015 60.862 20.6216C60.862 20.5017 60.852 20.3917 60.832 20.2717C60.712 19.6118 60.1121 19.0919 59.4222 19.0919C58.2324 19.0919 57.0526 19.0919 55.8628 19.0919C55.8028 19.0919 55.7428 19.0919 55.6928 19.0919C54.9429 19.1919 54.423 19.8218 54.413 20.5417C54.413 21.6815 54.413 22.8213 54.413 23.9711C54.413 24.0811 54.413 24.1911 54.433 24.2911C54.483 24.701 54.6729 25.031 54.9929 25.2909C55.2629 25.5009 55.5728 25.5909 55.9128 25.5909C56.4927 25.5909 57.0726 25.5909 57.6625 25.5909L57.6425 25.6009Z" fill="white"/>
<path d="M40.4852 27.0205C40.4852 27.0205 40.4852 26.9606 40.4852 26.9306C40.4852 26.1407 40.4852 25.3508 40.4852 24.5609C40.4852 23.2511 40.4852 21.9413 40.4852 20.6315C40.4852 19.9017 39.9653 19.2818 39.2454 19.1618C39.1754 19.1518 39.0954 19.1518 39.0254 19.1518C37.8456 19.1518 36.6658 19.1518 35.486 19.1518C34.7961 19.1518 34.1962 19.6517 34.0662 20.3316C34.0462 20.4416 34.0362 20.5516 34.0362 20.6615C34.0362 21.4614 34.0362 22.2613 34.0362 23.0612C34.0362 23.5311 34.0362 24.001 34.0362 24.4709C34.0362 25.1408 34.0362 25.8007 34.0462 26.4706C34.0462 26.6606 34.0562 26.8506 34.0662 27.0305H32.6064C32.6064 27.0305 32.6064 26.9606 32.6064 26.9306C32.6064 26.2107 32.6064 25.4908 32.6064 24.7809C32.6064 22.0413 32.6064 19.2918 32.6064 16.5522C32.6064 15.4124 32.6064 14.2725 32.6064 13.1327C32.6064 13.1127 32.6064 13.0827 32.6064 13.0527H34.0162V17.852C34.1462 17.812 34.2762 17.772 34.4062 17.752C34.5261 17.732 34.6561 17.712 34.7761 17.712C36.4158 17.712 38.0556 17.712 39.6953 17.712C40.2552 17.712 40.7352 17.922 41.1451 18.3019C41.525 18.6519 41.755 19.0918 41.845 19.6017C41.865 19.7317 41.875 19.8717 41.875 20.0016C41.875 22.3013 41.875 24.6109 41.875 26.9106C41.875 26.9506 41.875 26.9905 41.875 27.0305H40.4652L40.4852 27.0205Z" fill="white"/>
<path d="M16.839 17.6506C17.6489 17.6506 18.4587 17.6406 19.2686 17.6506C20.1285 17.6606 20.7584 18.0706 21.1883 18.8004C21.3983 19.1704 21.4882 19.5703 21.4882 20.0003C21.4882 21.56 21.4882 23.1198 21.4882 24.6795C21.4882 25.3594 21.2483 25.9393 20.7584 26.4092C20.3784 26.7692 19.9185 26.9792 19.3886 26.9992C18.8487 27.0092 18.3087 26.9992 17.7688 26.9992C16.679 26.9992 15.5892 26.9992 14.4993 26.9992C13.9794 26.9992 13.4995 26.8592 13.0896 26.5392C12.6396 26.1893 12.3497 25.7194 12.2497 25.1594C12.2097 24.9695 12.1997 24.7695 12.1997 24.5795C12.1997 23.0198 12.1997 21.47 12.1997 19.9103C12.1997 18.8504 12.9096 17.9306 13.9494 17.6906C14.0894 17.6606 14.2494 17.6406 14.3894 17.6406C15.2092 17.6406 16.0191 17.6406 16.839 17.6406V17.6506ZM16.839 25.5994C17.4189 25.5994 18.0088 25.5994 18.5887 25.5994C18.9686 25.5994 19.2986 25.4794 19.5785 25.2194C19.9085 24.9095 20.0685 24.5195 20.0685 24.0796C20.0685 22.9498 20.0685 21.81 20.0685 20.6801C20.0685 20.5602 20.0585 20.4302 20.0385 20.3102C19.9285 19.6303 19.3186 19.1004 18.6187 19.1004C17.4289 19.1004 16.2391 19.1004 15.0493 19.1004C14.9393 19.1004 14.8193 19.1104 14.7093 19.1404C14.0794 19.2804 13.5995 19.8903 13.5995 20.5402C13.5995 21.72 13.5995 22.9098 13.5995 24.0896C13.5995 24.1796 13.5995 24.2596 13.6195 24.3496C13.6795 24.7495 13.8694 25.0795 14.1994 25.3294C14.4594 25.5294 14.7693 25.6194 15.0993 25.6194C15.6792 25.6194 16.2491 25.6194 16.829 25.6194L16.839 25.5994Z" fill="white"/>
<path d="M22.418 22.3197C22.418 21.5398 22.418 20.7499 22.418 19.97C22.428 19.0802 22.8079 18.3903 23.5778 17.9303C23.8877 17.7404 24.2277 17.6504 24.5976 17.6504C26.2374 17.6504 27.8871 17.6504 29.5268 17.6504C30.0368 17.6504 30.4967 17.8304 30.8866 18.1703C31.3266 18.5403 31.5765 19.0102 31.6765 19.5701C31.6965 19.6901 31.7065 19.8101 31.7065 19.93C31.7065 21.5298 31.7065 23.1295 31.7065 24.7393C31.7065 25.3992 31.4665 25.9591 30.9866 26.409C30.5667 26.809 30.0668 27.0189 29.4768 27.0189C27.8671 27.0189 26.2574 27.0189 24.6476 27.0189C23.7377 27.0189 22.9079 26.439 22.5779 25.5891C22.4679 25.2892 22.408 24.9892 22.408 24.6793C22.408 23.8994 22.408 23.1195 22.408 22.3397L22.418 22.3197ZM27.0672 25.5991C27.7071 25.5991 28.347 25.6091 28.9769 25.5991C29.3669 25.5991 29.6868 25.3992 29.9368 25.0992C30.1867 24.7993 30.2967 24.4493 30.2967 24.0594C30.2967 22.9196 30.2967 21.7797 30.2967 20.6399C30.2967 20.5299 30.2967 20.42 30.2667 20.32C30.1667 19.6401 29.5568 19.1102 28.8769 19.1102C27.6671 19.1102 26.4673 19.1102 25.2575 19.1102C25.1675 19.1102 25.0775 19.1102 24.9976 19.1302C24.3277 19.2801 23.8477 19.87 23.8477 20.5599C23.8477 21.7497 23.8477 22.9496 23.8477 24.1394C23.8477 24.6493 24.0777 25.0592 24.4876 25.3592C24.7376 25.5392 25.0175 25.6091 25.3275 25.6091C25.9074 25.6091 26.4873 25.6091 27.0672 25.6091V25.5991Z" fill="white"/>
<path d="M42.7749 22.3297C42.7749 21.5198 42.7749 20.7099 42.7749 19.89C42.7749 19.3901 42.9349 18.9502 43.2248 18.5502C43.5148 18.1503 43.9047 17.8704 44.3846 17.7404C44.5746 17.6904 44.7646 17.6504 44.9645 17.6504C46.6043 17.6504 48.234 17.6504 49.8738 17.6504C50.4237 17.6504 50.9036 17.8504 51.3036 18.2203C51.6835 18.5702 51.9235 19.0002 52.0134 19.5001C52.0334 19.6201 52.0534 19.7501 52.0534 19.88C52.0534 21.5098 52.0534 23.1395 52.0534 24.7693C52.0534 25.3592 51.8235 25.8791 51.4135 26.319C51.0736 26.679 50.6637 26.8889 50.1837 26.9789C50.0737 26.9989 49.9538 27.0089 49.8338 27.0089C48.214 27.0089 46.6043 27.0089 44.9845 27.0089C44.4346 27.0089 43.9547 26.819 43.5448 26.459C43.1048 26.0691 42.8549 25.5891 42.7849 25.0092C42.7849 24.9392 42.7649 24.8593 42.7649 24.7893C42.7649 23.9694 42.7649 23.1495 42.7649 22.3397L42.7749 22.3297ZM47.4242 25.5991C48.0041 25.5991 48.574 25.5991 49.1539 25.5991C49.2439 25.5991 49.3239 25.5991 49.4138 25.5891C49.7738 25.5292 50.0637 25.3692 50.3037 25.0892C50.5237 24.8293 50.6537 24.5193 50.6537 24.1794C50.6537 22.9896 50.6537 21.7997 50.6537 20.5999C50.6537 20.45 50.6337 20.29 50.5937 20.14C50.4337 19.5301 49.8638 19.1002 49.2439 19.1002C48.0341 19.1002 46.8343 19.1002 45.6244 19.1002C45.2545 19.1002 44.9345 19.2401 44.6646 19.5001C44.3546 19.8001 44.2047 20.18 44.2047 20.6099C44.2047 21.6898 44.2047 22.7796 44.2047 23.8594C44.2047 24.0094 44.2047 24.1494 44.2247 24.2993C44.2647 24.6993 44.4546 25.0292 44.7646 25.2792C45.0445 25.5092 45.3745 25.5991 45.7344 25.5991C46.3043 25.5991 46.8742 25.5991 47.4442 25.5991H47.4242Z" fill="white"/>
</g>
</g>
<defs>
<clipPath id="clip0_30_5565">
<rect width="63.7" height="40" fill="white" transform="translate(0.251465)"/>
</clipPath>
<clipPath id="clip1_30_5565">
<rect width="63.7" height="40" fill="white" transform="translate(0.251465)"/>
</clipPath>
</defs>
</svg>
