<svg width="62" height="40" viewBox="0 0 62 40" fill="none" xmlns="http://www.w3.org/2000/svg">
<g clip-path="url(#clip0_30_5574)">
<g clip-path="url(#clip1_30_5574)">
<path fill-rule="evenodd" clip-rule="evenodd" d="M1.96851 12.5293V27.4693H60.9585V12.5293H1.96851ZM16.7185 23.9193H12.3485V20.8193C12.2185 21.7093 11.8385 22.4693 11.2685 23.0393C10.3785 23.8593 9.68851 23.9893 8.54851 23.9893H5.56851V16.0793H8.35851C9.62851 16.0793 10.5085 16.2693 11.3385 17.0293C11.9085 17.5993 12.2885 18.3593 12.4185 19.3093V16.0793H16.7885V17.7893H14.3185V19.0593H16.4085V20.7693H14.3185V22.2293H16.7285V23.9393L16.7185 23.9193ZM27.5385 23.8593H25.6385V22.7193H23.7985C23.5485 22.9693 23.2885 23.1593 23.0985 23.2893C22.4685 23.7293 21.7085 23.9893 20.7585 23.9893C20.0585 23.9293 18.7985 23.6693 17.7185 22.5993C17.1485 21.8993 16.7085 20.9493 16.7085 19.8093C16.7685 18.7993 16.9585 18.1593 17.5285 17.3993C18.4785 16.1993 19.6185 15.7493 20.8185 15.7493C22.0885 15.8093 22.9685 16.2593 23.5385 16.7593C23.7885 16.9493 23.8585 17.0093 24.0485 17.1993L23.0385 19.0393C22.8485 18.8493 22.7185 18.7193 22.5285 18.5293C22.5285 18.5293 21.7685 17.7693 20.8185 17.7693C19.6785 17.7693 18.7885 18.7193 18.7885 19.8593C18.7885 21.0593 19.7385 22.1393 20.8785 22.0793C22.0185 22.0193 22.5885 21.1293 22.6485 21.0693L25.4985 16.0093H27.5285V23.8593H27.5385ZM32.9185 17.9093H31.3985V23.9893H29.4385V17.9093H27.9185V16.0693H32.9185V17.9093ZM39.1885 23.9893H37.2285V20.9493H35.1985V23.9893H33.2385V16.0793H35.1985V19.0593H37.2285V16.0793H39.1885V23.9893ZM57.4185 23.9893H55.6485L52.6685 19.6193V23.9893H50.7085V21.3293C50.5185 21.8993 50.1985 22.4693 49.7585 22.9093C48.9985 23.6693 47.9185 24.1093 46.8485 24.1093C45.7785 24.1093 44.8885 23.7893 44.1285 23.1593V23.9793H39.9485V16.0693H41.9085V22.2093H43.3685C42.9285 21.5793 42.7385 20.7493 42.7385 19.9293C42.7385 18.8493 43.1785 17.8393 43.9385 17.0793C44.7585 16.3193 45.7085 15.9393 46.8485 15.9393C47.9285 15.9393 48.9385 16.3193 49.6985 17.0793C50.2085 17.5893 50.5185 18.1593 50.7085 18.7293V16.0693H52.4785L55.3885 20.4393V16.0693H57.4185V23.9793V23.9893Z" fill="white"/>
<path fill-rule="evenodd" clip-rule="evenodd" d="M25.7085 21.1391V19.3691L24.6985 21.1391H25.7085Z" fill="white"/>
<path fill-rule="evenodd" clip-rule="evenodd" d="M46.7885 17.8496C45.6485 17.8496 44.6985 18.7996 44.6985 19.9396C44.6985 21.2096 45.7085 22.1596 46.7885 22.1596C47.9285 22.1596 48.8785 21.2696 48.8185 19.9396C48.8185 18.7396 47.9285 17.8496 46.7885 17.8496Z" fill="white"/>
<path fill-rule="evenodd" clip-rule="evenodd" d="M8.29857 17.7795H7.53857V22.2095H8.29857C9.81857 22.2095 10.5186 21.5095 10.5186 19.9895C10.5186 18.4695 9.75857 17.7695 8.29857 17.7695V17.7795Z" fill="white"/>
</g>
</g>
<defs>
<clipPath id="clip0_30_5574">
<rect width="61" height="40" fill="white" transform="translate(0.968506)"/>
</clipPath>
<clipPath id="clip1_30_5574">
<rect width="61" height="40" fill="white" transform="translate(0.968506)"/>
</clipPath>
</defs>
</svg>
