<svg width="102" height="40" viewBox="0 0 102 40" fill="none" xmlns="http://www.w3.org/2000/svg">
<g clip-path="url(#clip0_30_5581)">
<g clip-path="url(#clip1_30_5581)">
<path fill-rule="evenodd" clip-rule="evenodd" d="M40.0917 25.409H41.9415L41.6415 23.9591V15.43H39.8717V19.3296C39.3217 18.6997 38.5918 18.3497 37.7219 18.3497C35.9521 18.3497 34.5622 19.8196 34.5622 21.9493C34.5622 24.0791 35.9521 25.549 37.7219 25.549C38.5918 25.549 39.3817 25.169 39.9017 24.5391L40.0917 25.409ZM75.3482 20.2595C75.6981 20.2595 76.0581 20.3395 76.3581 20.5595L77.208 18.6797C76.828 18.4297 76.358 18.3297 75.9281 18.3297C75.1382 18.3297 74.4582 18.6797 74.0183 19.3696L73.8283 18.4997H71.9985L72.2985 19.8596V25.419H74.0683V20.9994C74.3183 20.5595 74.7782 20.2595 75.3482 20.2595ZM80.5876 23.6992C79.5477 23.6992 78.7878 23.0192 78.7878 21.9493C78.7878 20.8795 79.5477 20.1995 80.5876 20.1995C81.6275 20.1995 82.3875 20.8795 82.3875 21.9493C82.3875 23.0192 81.6475 23.6992 80.5876 23.6992ZM36.3121 21.9493C36.3121 20.8895 37.072 20.1995 38.1119 20.1995C39.1518 20.1995 39.9117 20.8795 39.9117 21.9493C39.9117 23.0192 39.1518 23.6992 38.1119 23.6992C37.072 23.6992 36.3121 23.0192 36.3121 21.9493ZM88.4968 23.6992C87.4569 23.6992 86.697 23.0192 86.697 21.9493C86.697 20.8795 87.4569 20.1995 88.4968 20.1995C89.5367 20.1995 90.2967 20.8795 90.2967 21.9493C90.2967 23.0192 89.5367 23.6992 88.4968 23.6992ZM46.3211 20.0995C47.251 20.0995 47.8509 20.5395 48.0409 21.3294H44.6012C44.7912 20.5395 45.3911 20.0995 46.3211 20.0995ZM67.6389 20.0995C68.5688 20.0995 69.1688 20.5395 69.3587 21.3294H65.9191C66.1391 20.5395 66.739 20.0995 67.6389 20.0995ZM58.9398 25.419H61.7995L63.6493 18.4897H61.7095L60.3497 24.0791L58.9898 18.4897H57.08L58.9298 25.419H58.9398ZM54.3302 25.419H56.1001V18.4897H54.3302V25.419ZM46.591 25.559C47.5709 25.559 48.5508 25.289 49.3707 24.7691L48.6908 23.2392C48.0409 23.5692 47.331 23.7892 46.621 23.7892C45.6911 23.7892 45.0412 23.4392 44.7412 22.7493H49.7607C49.8107 22.4993 49.8407 22.2293 49.8407 21.9293C49.8407 19.7796 48.3409 18.3597 46.351 18.3597C44.3612 18.3597 42.8614 19.8096 42.8614 21.9593C42.8614 24.1091 44.3312 25.559 46.601 25.559H46.591ZM92.0165 21.9593C92.0165 19.8096 90.5166 18.3597 88.4968 18.3597C86.477 18.3597 84.9772 19.8296 84.9772 21.9593C84.9772 24.0891 86.477 25.559 88.4968 25.559C90.5166 25.559 92.0165 24.1091 92.0165 21.9593ZM67.8889 25.559C68.8688 25.559 69.8487 25.289 70.6686 24.7691L69.9887 23.2392C69.3388 23.5692 68.6288 23.7892 67.9189 23.7892C66.989 23.7892 66.3091 23.4392 66.0391 22.7493H71.0586C71.1086 22.4993 71.1386 22.2293 71.1386 21.9293C71.1386 19.7796 69.6387 18.3597 67.6489 18.3597C65.6591 18.3597 64.1593 19.8096 64.1593 21.9593C64.1593 24.1091 65.6291 25.559 67.8989 25.559H67.8889ZM80.5976 25.559C82.6174 25.559 84.1173 24.0891 84.1173 21.9593C84.1173 19.8296 82.6174 18.3597 80.5976 18.3597C78.5778 18.3597 77.078 19.8296 77.078 21.9593C77.078 24.0891 78.5778 25.559 80.5976 25.559ZM50.9606 25.419H52.7304V15.44H50.9606V25.419ZM55.2402 17.5398C55.8701 17.5398 56.3601 17.0498 56.3601 16.4199C56.3601 15.79 55.8701 15.3 55.2402 15.3C54.6102 15.3 54.1203 15.79 54.1203 16.4199C54.1203 17.0498 54.6102 17.5398 55.2402 17.5398ZM24.6232 9.14062L23.6133 18.7097L21.8435 10.6405L16.394 11.7904L18.1439 19.8596L10.2646 21.5194L11.6545 27.9787L25.5031 30.8685L28.6628 23.8592L30.1627 9.71057L24.6232 9.14062ZM20.2337 23.0492C19.9637 23.2992 19.5837 23.2992 19.1738 23.1592C18.7638 23.0192 18.6038 22.5593 18.7338 21.9893C18.8438 21.5494 19.3837 21.4994 19.6337 21.4994C19.7437 21.4994 19.8237 21.5294 19.9337 21.5494C20.1237 21.6294 20.4536 21.8194 20.5036 22.0993C20.6136 22.4493 20.5336 22.7793 20.2337 23.0492ZM24.2433 23.4892C24.0233 23.8392 23.4833 23.8992 22.9634 23.6292C22.6134 23.4692 22.6134 22.9992 22.6334 22.7293C22.6634 22.5893 22.7134 22.4293 22.7934 22.3193C22.9334 22.1593 23.1434 21.9393 23.3933 21.9393C23.8033 21.9393 24.1533 22.0993 24.3432 22.4293C24.5332 22.7793 24.4532 23.1392 24.2333 23.4892H24.2433Z" fill="white"/>
</g>
</g>
<defs>
<clipPath id="clip0_30_5581">
<rect width="100.28" height="40" fill="white" transform="translate(0.985596)"/>
</clipPath>
<clipPath id="clip1_30_5581">
<rect width="100.28" height="40" fill="white" transform="translate(0.985596)"/>
</clipPath>
</defs>
</svg>
