<svg width="62" height="40" viewBox="0 0 62 40" fill="none" xmlns="http://www.w3.org/2000/svg">
<g clip-path="url(#clip0_30_5585)">
<g clip-path="url(#clip1_30_5585)">
<path d="M51.2728 20.0801C51.1828 20.0801 51.0828 20.0801 50.9928 20.1201C50.8028 20.1701 50.6428 20.2901 50.5328 20.4601C50.4728 20.5301 50.4328 20.6201 50.3928 20.7101C50.3928 20.7201 50.3928 20.7501 50.3928 20.7701H50.4228C50.6128 20.7301 50.7928 20.6901 50.9828 20.6501L51.5228 20.5301C51.6328 20.5001 51.7428 20.4801 51.8628 20.4501C51.9128 20.4401 51.9228 20.4201 51.8928 20.3801C51.7228 20.2001 51.5228 20.0801 51.2728 20.0801Z" fill="white"/>
<path d="M10.6227 20.23C10.4127 20.2 10.1927 20.2 9.98271 20.27C9.84271 20.32 9.72271 20.41 9.64271 20.54C9.55271 20.68 9.53271 20.84 9.53271 21.03C9.53271 21.03 9.53272 21.14 9.54272 21.2C9.58272 21.5 9.73271 21.7 10.0227 21.77C10.2727 21.84 10.5327 21.84 10.7827 21.74C10.9727 21.67 11.1027 21.52 11.1427 21.33C11.2027 21.14 11.2027 20.93 11.1527 20.73C11.0827 20.43 10.8727 20.27 10.6027 20.22L10.6227 20.23Z" fill="white"/>
<path d="M34.6726 20.3007C34.5626 20.2607 34.4526 20.2407 34.3426 20.2207C34.1826 20.2207 34.0226 20.2507 33.8826 20.3307C33.6726 20.4507 33.5426 20.6507 33.4926 20.8907C33.4626 21.0607 33.4826 21.2407 33.5326 21.4107C33.6026 21.6207 33.7526 21.7507 33.9726 21.8107C34.1626 21.8607 34.3626 21.8607 34.5526 21.8107C34.8026 21.7607 34.9826 21.6207 35.0426 21.3707C35.1126 21.1207 35.1126 20.8507 35.0126 20.6107C34.9526 20.4607 34.8226 20.3407 34.6726 20.3007Z" fill="white"/>
<path d="M60.2727 13.9902H1.28271V26.0102H60.2727V13.9902ZM7.07271 20.9802C7.07271 21.0802 7.07271 21.0902 6.96271 21.0902H6.07271C6.00271 21.0902 6.00271 21.0902 6.00271 21.1602V23.7302C6.00271 23.7302 5.99271 23.8002 5.93271 23.8002H4.02271C4.02271 23.8002 3.96271 23.7702 3.96271 23.7302C3.97271 22.6102 3.97271 21.5002 3.97271 20.3802C3.97271 19.2802 3.97271 18.2002 3.97271 17.1102C3.97271 16.7902 4.12271 16.5402 4.39271 16.3602C4.58272 16.2202 4.81271 16.1702 5.05271 16.1702H7.80271C7.95271 16.1702 7.94271 16.1702 7.94271 16.3202V17.8602C7.94271 17.9502 7.94272 17.9702 7.83272 17.9702H6.48271C6.39271 17.9702 6.30271 17.9702 6.23271 18.0102C6.07271 18.0702 6.01271 18.2202 6.00271 18.3702C6.00271 18.6202 6.00271 18.8602 6.00271 19.1002V19.2402C6.00271 19.2402 6.03271 19.3102 6.07271 19.3102H6.96271C7.04271 19.3102 7.07271 19.3502 7.07271 19.4202V20.9802ZM13.1827 21.1302C13.1827 21.3102 13.1527 21.5702 13.0727 21.8202C12.9727 22.1602 12.8227 22.4502 12.6027 22.7302C12.4127 22.9802 12.1827 23.2002 11.9227 23.3902C11.7427 23.5102 11.5527 23.6202 11.3527 23.7002C10.9527 23.8502 10.5327 23.9102 10.1127 23.8702C9.87271 23.8502 9.63271 23.8002 9.39271 23.7102C8.84271 23.5002 8.42272 23.1402 8.06272 22.6902C7.91271 22.5002 7.80271 22.3002 7.72271 22.0802C7.65271 21.8902 7.59271 21.6802 7.57271 21.4702C7.54271 21.2602 7.53271 21.0502 7.54272 20.8502C7.57272 20.5602 7.62271 20.2902 7.73271 20.0202C7.91271 19.5702 8.21272 19.2002 8.58272 18.8902C8.77272 18.7202 9.00272 18.5902 9.24271 18.4902C9.69271 18.3002 10.1727 18.2402 10.6627 18.2802C10.8827 18.3002 11.1027 18.3502 11.3127 18.4202C11.6527 18.5402 11.9527 18.7202 12.2227 18.9602C12.4727 19.1802 12.6927 19.4402 12.8527 19.7402C12.9327 19.8902 13.0027 20.0502 13.0627 20.2202C13.1627 20.4702 13.1927 20.7702 13.1927 21.1402L13.1827 21.1302ZM18.9727 22.1802C18.7927 22.5602 18.5327 22.9002 18.2127 23.1702C17.9827 23.3802 17.7127 23.5502 17.4127 23.6802C17.0927 23.8102 16.7427 23.8702 16.4027 23.8602H16.3927C16.1427 23.8602 15.8927 23.8302 15.6427 23.7502C15.3927 23.6802 15.1427 23.5602 14.9227 23.4102C14.5627 23.1802 14.2527 22.8702 14.0127 22.5102C13.8827 22.3202 13.7827 22.1002 13.7127 21.8802C13.6027 21.5202 13.5627 21.1502 13.5927 20.7902C13.6027 20.5402 13.6627 20.3002 13.7427 20.0602C13.8927 19.6602 14.1227 19.3302 14.4127 19.0302C14.6527 18.8002 14.9127 18.5902 15.2227 18.4702C15.4527 18.3802 15.6927 18.3002 15.9427 18.2602C16.1627 18.2302 16.3927 18.2102 16.6127 18.2302C16.7627 18.2302 16.9127 18.2702 17.0527 18.3002C17.1627 18.3302 17.2827 18.3602 17.3927 18.4002C17.5327 18.4602 17.6827 18.5202 17.8127 18.6002C18.1127 18.7702 18.3627 19.0102 18.5827 19.2802C18.7627 19.5002 18.9127 19.7402 19.0127 20.0002C19.1727 20.4102 19.2327 20.8502 19.1927 21.2902C19.1627 21.5902 19.0927 21.8902 18.9627 22.1702L18.9727 22.1802ZM23.5427 23.7002C23.5427 23.7702 23.5427 23.7902 23.4627 23.7902H21.4227C21.1727 23.7902 20.9227 23.7102 20.7227 23.5402C20.5127 23.3702 20.3827 23.1002 20.3827 22.8302C20.3827 22.4302 20.3827 22.0402 20.3827 21.6302V20.3302C20.3827 20.2602 20.3727 20.2402 20.2927 20.2402H19.6327C19.5627 20.2402 19.5627 20.2402 19.5627 20.1702V18.5302C19.5627 18.4702 19.5727 18.4602 19.6327 18.4602H20.2827C20.3627 18.4602 20.3727 18.4502 20.3727 18.3702V16.7302C20.3727 16.6602 20.3727 16.6502 20.4527 16.6502H22.2727C22.3527 16.6502 22.3627 16.6502 22.3627 16.7402C22.3627 17.0402 22.3627 17.3502 22.3627 17.6602C22.3627 17.8902 22.3627 18.1202 22.3627 18.3602C22.3627 18.4502 22.3727 18.4602 22.4727 18.4602H23.0527C23.1227 18.4602 23.1327 18.4702 23.1327 18.5402V20.1702C23.1327 20.2402 23.1227 20.2502 23.0527 20.2502H22.4627C22.3827 20.2502 22.3727 20.2602 22.3727 20.3402V21.5202C22.3727 21.6202 22.3727 21.7302 22.4327 21.8202C22.4927 21.9302 22.5727 21.9902 22.6927 22.0102C22.7427 22.0102 22.8027 22.0102 22.8427 22.0102H23.4027C23.4927 22.0102 23.5027 22.0102 23.5027 22.1102V23.7002H23.5427ZM31.2527 23.7002C31.2527 23.7002 31.2427 23.7702 31.1827 23.7702H28.2127C28.0227 23.7702 27.8327 23.7302 27.6727 23.6302C27.5327 23.5502 27.4327 23.4202 27.3727 23.2702C27.3027 23.1002 27.2927 22.9302 27.2927 22.7502C27.3027 21.6802 27.3027 20.6202 27.3027 19.5602V16.2502C27.3027 16.1602 27.3027 16.1502 27.4027 16.1502H29.2027C29.2827 16.1502 29.2927 16.1602 29.2927 16.2502V21.4702C29.2927 21.5402 29.2927 21.6202 29.3027 21.6902C29.3327 21.8402 29.4527 21.9802 29.6227 22.0002C29.6927 22.0002 29.7527 22.0002 29.8327 22.0002H31.1727C31.2427 22.0002 31.2427 22.0102 31.2427 22.0902V23.7002H31.2527ZM37.0927 21.5202C37.0627 21.7502 36.9827 21.9902 36.8827 22.2002C36.6327 22.7502 36.2227 23.1502 35.7227 23.4702C35.5027 23.6102 35.2527 23.7102 35.0027 23.7702C34.7527 23.8102 34.5227 23.8402 34.2727 23.8402C34.0227 23.8402 33.7627 23.8102 33.5127 23.7402C33.2627 23.6702 33.0227 23.5602 32.8127 23.4102C32.5527 23.2402 32.3127 23.0302 32.1127 22.7902C31.9527 22.6002 31.8127 22.3702 31.7127 22.1502C31.5227 21.7002 31.4627 21.2202 31.5027 20.7502C31.5227 20.5102 31.5727 20.2702 31.6527 20.0502C31.7927 19.6702 32.0127 19.3302 32.3027 19.0402C32.5327 18.8102 32.8127 18.6102 33.1127 18.4702C33.2627 18.4002 33.4327 18.3602 33.5927 18.3202C33.9127 18.2502 34.2327 18.2202 34.5527 18.2502C34.7627 18.2702 34.9627 18.3002 35.1627 18.3602C35.3627 18.4202 35.5627 18.5102 35.7427 18.6102C35.9927 18.7602 36.2127 18.9502 36.4027 19.1702C36.5827 19.3602 36.7327 19.5802 36.8427 19.8102C36.9327 20.0002 37.0027 20.1902 37.0527 20.4102C37.1327 20.7802 37.1327 21.1502 37.0827 21.5302L37.0927 21.5202ZM42.7727 22.6302C42.5227 22.9902 42.2227 23.2902 41.8427 23.5202C41.5627 23.6802 41.2627 23.8002 40.9327 23.8402C40.7827 23.8702 40.6127 23.8702 40.4527 23.8902C40.4427 23.8902 40.4427 23.8802 40.4427 23.8602C40.1727 23.8602 39.9027 23.8202 39.6527 23.7502C39.4027 23.6802 39.1527 23.5602 38.9327 23.4102C38.5927 23.1902 38.3027 22.9102 38.0627 22.5802C37.9127 22.3702 37.7827 22.1302 37.7227 21.8802C37.6127 21.5102 37.5727 21.1402 37.6127 20.7602C37.6427 20.3802 37.7527 20.0102 37.9527 19.6702C38.1627 19.3002 38.4627 18.9802 38.8027 18.7302C39.0027 18.5802 39.2327 18.4602 39.4727 18.3802C39.9127 18.2302 40.3927 18.1902 40.8527 18.2702C41.0227 18.3002 41.1927 18.3402 41.3627 18.3802C41.6027 18.4502 41.8127 18.5702 42.0227 18.7102C42.3127 18.9202 42.5627 19.1802 42.7627 19.4802C42.7927 19.5102 42.7927 19.5402 42.7527 19.5602C42.3927 19.7902 42.0227 20.0202 41.6627 20.2402C41.5127 20.3402 41.3427 20.4402 41.1827 20.5402C41.1327 20.5702 41.0827 20.5602 41.0327 20.5102C40.9627 20.4402 40.9027 20.3702 40.8227 20.3202C40.7127 20.2302 40.5627 20.2102 40.4227 20.2202C40.2927 20.2202 40.1727 20.2202 40.0427 20.2802C39.8627 20.3502 39.7227 20.4602 39.6527 20.6402C39.5627 20.8602 39.5627 21.0902 39.6227 21.3202C39.6727 21.5302 39.8027 21.6902 40.0227 21.7602C40.2527 21.8402 40.4727 21.8602 40.7127 21.7902C40.8527 21.7502 40.9627 21.6602 41.0527 21.5402C41.0527 21.5302 41.0827 21.5102 41.0827 21.5002C41.0927 21.4702 41.1227 21.4702 41.1527 21.5002C41.5727 21.7702 42.0027 22.0402 42.4227 22.3102L42.7627 22.5302C42.7627 22.5302 42.8027 22.5802 42.7727 22.6102V22.6302ZM48.9027 23.7402H46.7027C46.7027 23.7402 46.6327 23.7202 46.6027 23.6902C46.2627 23.2902 45.9427 22.8802 45.6027 22.4802C45.5327 22.3902 45.4527 22.3102 45.3927 22.2202C45.3827 22.2102 45.3527 22.1902 45.3327 22.1802C45.3327 22.2102 45.3227 22.2202 45.3227 22.2502V23.6702C45.3227 23.7402 45.3227 23.7402 45.2327 23.7402H43.3927C43.3227 23.7402 43.2827 23.7002 43.2827 23.6302C43.2827 22.4002 43.2827 21.1702 43.2827 19.9302V16.2102C43.2827 16.1302 43.2927 16.1102 43.3827 16.1102H45.2227C45.2927 16.1102 45.3127 16.1202 45.3127 16.2002V19.7602C45.3127 19.7602 45.3227 19.7902 45.3227 19.8102L45.3727 19.7802C45.4227 19.7202 45.4627 19.6702 45.5127 19.6002C45.7627 19.2902 46.0127 18.9802 46.2727 18.6702C46.3027 18.6202 46.3427 18.6002 46.4127 18.6002H48.4327C48.4327 18.6002 48.4627 18.6002 48.4727 18.6302C48.4727 18.6302 48.4727 18.6602 48.4627 18.6702C48.3427 18.8202 48.2127 18.9702 48.0827 19.1302C47.7027 19.5902 47.3227 20.0602 46.9527 20.5102C46.8627 20.6202 46.7727 20.7302 46.6727 20.8502C46.6427 20.8902 46.6427 20.9202 46.6727 20.9602C46.9427 21.2802 47.2127 21.6002 47.4827 21.9302C47.8227 22.3302 48.1427 22.7202 48.4727 23.1202C48.6227 23.3102 48.7927 23.5002 48.9527 23.6802C48.9527 23.6902 48.9627 23.7102 48.9627 23.7302C48.9527 23.7302 48.9327 23.7402 48.9127 23.7402H48.9027ZM53.9827 20.8102C53.7927 20.8502 53.5927 20.8902 53.4027 20.9302C53.2327 20.9602 53.0627 21.0002 52.8927 21.0402C52.7227 21.0802 52.5527 21.1102 52.3727 21.1502C52.2027 21.1902 52.0327 21.2202 51.8627 21.2602C51.6827 21.3002 51.4927 21.3402 51.3127 21.3802C51.1527 21.4102 50.9827 21.4502 50.8127 21.4902L50.5627 21.5402C50.5627 21.5402 50.5327 21.5502 50.5327 21.5702C50.5327 21.5802 50.5427 21.6102 50.5627 21.6202C50.6427 21.6902 50.7327 21.7502 50.8127 21.8102C50.9627 21.9302 51.1427 21.9402 51.3227 21.9202C51.5727 21.8902 51.7627 21.7702 51.9027 21.5802C51.9527 21.5102 52.0127 21.5002 52.0827 21.5502L52.7027 21.9502C52.9727 22.1202 53.2527 22.3002 53.5227 22.4702C53.5827 22.5102 53.5827 22.5602 53.5327 22.6102C53.3527 22.8002 53.1927 22.9902 52.9927 23.1702C52.8827 23.2802 52.7727 23.3602 52.6327 23.4402C52.4827 23.5302 52.3127 23.6102 52.1527 23.6702C51.8927 23.7602 51.6127 23.8102 51.3427 23.8202C51.2927 23.8502 51.2327 23.8302 51.1927 23.8302L51.2127 23.8502C50.9627 23.8502 50.7027 23.8202 50.4527 23.7502C50.2027 23.6802 49.9527 23.5602 49.7327 23.4102C49.3727 23.1702 49.0527 22.8602 48.8127 22.5002C48.6827 22.3102 48.5827 22.1002 48.5127 21.8802C48.3627 21.4002 48.3427 20.9102 48.4427 20.4202C48.5127 20.1202 48.6227 19.8302 48.7827 19.5602C48.9627 19.2602 49.1827 19.0002 49.4427 18.7802C49.6427 18.6102 49.8827 18.4802 50.1227 18.3802C50.5427 18.2202 50.9727 18.1702 51.4127 18.1902C51.6427 18.2002 51.8727 18.2402 52.1027 18.3002C52.4327 18.4002 52.7227 18.5502 52.9927 18.7602C53.2727 18.9902 53.4927 19.2602 53.6627 19.5802C53.7527 19.7502 53.8427 19.9302 53.9127 20.1102C53.9827 20.3002 54.0227 20.5102 54.0227 20.7102C54.0227 20.7802 54.0127 20.7902 53.9427 20.8002L53.9827 20.8102ZM58.1427 19.9902C58.1427 20.0802 58.1427 20.0902 58.0427 20.0902C57.7427 20.0902 57.4427 20.0902 57.1327 20.0902C57.0327 20.0902 56.9427 20.1002 56.8427 20.1402C56.7027 20.1902 56.6527 20.3102 56.6327 20.4502C56.6327 20.5002 56.6327 20.5502 56.6327 20.6002V23.7102C56.6327 23.7102 56.6227 23.7802 56.5627 23.7802H54.7027C54.6327 23.7802 54.6227 23.7702 54.6227 23.7102C54.6127 22.9602 54.6027 22.2102 54.6227 21.4502V19.3702C54.6227 19.2402 54.6227 19.1002 54.6527 18.9702C54.7227 18.6702 54.8827 18.4702 55.1727 18.3802C55.3227 18.3302 55.4727 18.3202 55.6127 18.3202H58.0227C58.1027 18.3202 58.1227 18.3302 58.1227 18.4202V20.0102L58.1427 19.9902Z" fill="white"/>
<path d="M16.7227 20.2399C16.5027 20.1999 16.2827 20.1999 16.0627 20.2699C15.8427 20.3399 15.7027 20.4999 15.6427 20.7299C15.5927 20.9199 15.5927 21.1099 15.6427 21.2999C15.6727 21.4399 15.7427 21.5499 15.8527 21.6399C16.0427 21.7899 16.2627 21.8099 16.4927 21.8199C16.4927 21.8199 16.5627 21.8199 16.6027 21.8199C16.7527 21.8099 16.8927 21.7699 17.0027 21.6799C17.1427 21.5699 17.2127 21.4299 17.2527 21.2599C17.2827 21.0499 17.2827 20.8399 17.2127 20.6399C17.1327 20.4099 16.9627 20.2899 16.7327 20.2399H16.7227Z" fill="white"/>
</g>
</g>
<defs>
<clipPath id="clip0_30_5585">
<rect width="61" height="40" fill="white" transform="translate(0.282715)"/>
</clipPath>
<clipPath id="clip1_30_5585">
<rect width="61" height="40" fill="white" transform="translate(0.282715)"/>
</clipPath>
</defs>
</svg>
