<svg width="16" height="16" viewBox="0 0 16 16" fill="none" xmlns="http://www.w3.org/2000/svg">
<path d="M12.6665 7.33268H8.6665V3.33268C8.6665 3.15587 8.59627 2.9863 8.47124 2.86128C8.34622 2.73625 8.17665 2.66602 7.99984 2.66602C7.82303 2.66602 7.65346 2.73625 7.52843 2.86128C7.40341 2.9863 7.33317 3.15587 7.33317 3.33268V7.33268H3.33317C3.15636 7.33268 2.98679 7.40292 2.86177 7.52794C2.73674 7.65297 2.6665 7.82254 2.6665 7.99935C2.6665 8.17616 2.73674 8.34573 2.86177 8.47075C2.98679 8.59578 3.15636 8.66602 3.33317 8.66602H7.33317V12.666C7.33317 12.8428 7.40341 13.0124 7.52843 13.1374C7.65346 13.2624 7.82303 13.3327 7.99984 13.3327C8.17665 13.3327 8.34622 13.2624 8.47124 13.1374C8.59627 13.0124 8.6665 12.8428 8.6665 12.666V8.66602H12.6665C12.8433 8.66602 13.0129 8.59578 13.1379 8.47075C13.2629 8.34573 13.3332 8.17616 13.3332 7.99935C13.3332 7.82254 13.2629 7.65297 13.1379 7.52794C13.0129 7.40292 12.8433 7.33268 12.6665 7.33268Z" fill="black"/>
</svg>
