<svg width="2" height="16" viewBox="0 0 2 16" fill="none" xmlns="http://www.w3.org/2000/svg">
<path d="M1.00244 6.5C1.00244 7.93437 0.97334 9.25938 0.924316 10.3344L1.17158 14.2937C1.196 14.6844 1.196 15.3188 1.17158 15.7094C1.14717 16.1 1.10752 16.1 1.08311 15.7094L0.83584 11.75C0.768652 12.5375 0.68584 13 0.596191 13C0.371777 13 0.189941 10.0906 0.189941 6.5C0.189941 2.90937 0.371777 0 0.596191 0C0.820605 0 1.00244 2.90937 1.00244 6.5ZM0.596191 11C0.633126 11 0.669698 10.8836 0.703821 10.6575C0.737944 10.4313 0.768949 10.0998 0.795065 9.68198C0.821182 9.26412 0.841898 8.76804 0.856033 8.22208C0.870167 7.67611 0.877441 7.09095 0.877441 6.5C0.877441 5.90905 0.870167 5.32389 0.856033 4.77792C0.841898 4.23196 0.821182 3.73588 0.795065 3.31802C0.768949 2.90016 0.737944 2.56869 0.703821 2.34254C0.669698 2.1164 0.633126 2 0.596191 2C0.559257 2 0.522685 2.1164 0.488562 2.34254C0.454439 2.56869 0.423434 2.90016 0.397318 3.31802C0.371201 3.73588 0.350484 4.23196 0.33635 4.77792C0.322216 5.32389 0.314941 5.90905 0.314941 6.5C0.314941 7.09095 0.322216 7.67611 0.33635 8.22208C0.350484 8.76804 0.371201 9.26412 0.397318 9.68198C0.423434 10.0998 0.454439 10.4313 0.488562 10.6575C0.522685 10.8836 0.559257 11 0.596191 11Z" fill="#1E1E1E"/>
</svg>
