<svg width="80" height="40" viewBox="0 0 80 40" fill="none" xmlns="http://www.w3.org/2000/svg">
<g clip-path="url(#clip0_30_5608)">
<g clip-path="url(#clip1_30_5608)">
<path d="M31.1401 18.2309H29.3501C28.9701 18.2309 28.7401 18.4543 28.6601 18.9009C28.5301 19.5709 28.5301 19.5909 29.0601 19.5909H30.1101L29.5001 23.0209C29.3501 23.8009 29.0201 24.3309 27.9801 24.6409C27.7101 24.7009 27.6401 24.8109 27.6401 24.9309C27.6401 25.0809 27.6801 25.2009 27.8101 25.4809C27.9801 25.8809 28.0801 25.9609 28.2101 25.9609C28.3401 25.9609 28.6101 25.9009 28.7201 25.8509C30.1901 25.3709 30.7801 24.2309 31.0401 22.8809L31.7101 19.0109C31.8235 18.4776 31.6335 18.2109 31.1401 18.2109" fill="white"/>
<path d="M37.1799 18.2305C36.6999 18.2305 36.4266 18.4338 36.3599 18.8405L35.8299 21.9805C35.6799 22.8905 35.4499 23.4305 34.5499 23.4305C33.6499 23.4305 33.3699 22.9005 33.5199 22.0805L34.0299 19.0905C34.1799 18.2505 34.1599 18.2505 33.3999 18.2505C32.6799 18.2505 32.6599 18.2505 32.5599 18.8205L32.0299 21.9405C31.7099 23.7305 32.8299 24.8205 34.3899 24.8205C36.1399 24.8205 37.0399 24.0205 37.3199 22.1505L37.8499 19.0605C37.9999 18.2405 37.9599 18.2405 37.1999 18.2405" fill="white"/>
<path d="M40.4799 23.3499C41.0499 23.3299 41.3599 23.0599 41.3599 22.7999C41.3599 22.4599 40.9599 22.3399 40.3899 22.1699C39.3199 21.8299 38.3299 21.4499 38.3299 20.2999C38.3299 18.9299 39.4699 18.1699 40.8799 18.1699C41.4899 18.1699 42.1599 18.1899 42.5899 18.2299C42.9699 18.2699 43.0699 18.3999 42.9499 19.0099C42.8299 19.6199 42.6799 19.6599 42.3399 19.6399C41.9399 19.6199 41.3898 19.5799 40.7798 19.5799C40.0598 19.5799 39.8299 19.8499 39.8299 20.0899C39.8299 20.4099 40.1199 20.5699 40.7999 20.7599C42.0399 21.1199 42.8599 21.6199 42.8599 22.7199C42.8599 23.9999 41.9099 24.7399 40.3999 24.7799C39.6799 24.7999 38.9499 24.7599 38.2299 24.6499C37.7499 24.5899 37.7198 24.5899 37.8498 23.8699C37.9798 23.2399 37.9798 23.1999 38.4198 23.2399C39.3498 23.3499 39.8899 23.3699 40.4799 23.3499Z" fill="white"/>
<path d="M48.34 18.2305H44.28C43.9 18.2305 43.67 18.4605 43.59 18.9205C43.46 19.6105 43.48 19.6105 43.99 19.6105H45.32L44.58 23.9305C44.43 24.7705 44.45 24.7705 45.21 24.7705C45.9 24.7705 45.93 24.7705 46.03 24.1605L46.81 19.6105H48.09C48.47 19.6105 48.7 19.3805 48.78 18.9205C48.86 18.4605 48.7134 18.2305 48.34 18.2305Z" fill="white"/>
<path d="M55.52 19.6007C55.9 19.6007 56.13 19.3707 56.21 18.9107C56.29 18.4507 56.1567 18.2207 55.81 18.2207H52.9C51.87 18.2207 51.89 18.2207 51.72 19.2507L50.98 23.6107C50.79 24.7507 50.81 24.7507 51.84 24.7507H54.68C55.29 24.7507 55.25 24.7507 55.37 24.0807C55.4567 23.6207 55.3233 23.3907 54.97 23.3907H52.49L52.68 22.1507H54.72C55.0867 22.1507 55.3033 21.934 55.37 21.5007C55.4433 21.054 55.2267 20.8307 54.72 20.8307H52.91L53.1 19.6507L55.5 19.6307L55.52 19.6007Z" fill="white"/>
<path d="M58.5899 21.9207L59.5399 19.8607C59.5799 19.7474 59.6432 19.6907 59.7298 19.6907C59.8165 19.6907 59.8665 19.754 59.8799 19.8807L60.1698 21.9207H58.5899ZM61.1398 19.0407C61.0398 18.494 60.6032 18.2207 59.8299 18.2207C58.7599 18.2207 58.7798 18.2207 58.4398 18.8907L56.0199 23.9607C55.6599 24.6807 55.7299 24.7607 56.6299 24.7607C57.0899 24.7607 57.4198 24.544 57.6198 24.1107L57.9999 23.2507H60.3599L60.4899 24.1107C60.5999 24.7607 60.6199 24.7607 61.3099 24.7607C62.1099 24.7607 62.1698 24.7207 62.0298 23.9207L61.1499 19.0407H61.1398Z" fill="white"/>
<path d="M66.88 18.2305H62.8C62.42 18.2305 62.19 18.4605 62.11 18.9205C61.98 19.6105 62.03 19.6105 62.53 19.6105H63.86L63.12 23.9305C62.97 24.7705 62.99 24.7705 63.75 24.7705C64.44 24.7705 64.47 24.7705 64.57 24.1605L65.35 19.6105H66.63C67.01 19.6105 67.24 19.3805 67.32 18.9205C67.4 18.4605 67.2533 18.2305 66.88 18.2305Z" fill="white"/>
<path d="M25.2601 19.7507C25.2201 19.6407 24.6701 18.6307 23.6401 17.3507C23.6401 17.3507 23.6001 17.2907 23.6001 17.2407C23.5401 16.5007 23.4301 15.7507 23.2801 15.0307C23.2401 14.8807 23.1101 14.7607 22.9601 14.7607L21.8901 14.6307H21.8701C21.7401 14.6307 21.6401 14.7407 21.6401 14.8607V15.2407C21.6401 15.2407 21.6401 15.2607 21.6201 15.2607C20.9501 14.6507 20.2301 14.1007 19.4701 13.6407C19.3201 13.5307 19.1301 13.4707 18.9401 13.4707C18.7501 13.4707 18.5601 13.5307 18.4101 13.6407C14.7301 15.9107 12.7301 19.6007 12.6401 19.7907C12.5601 19.9807 12.6401 20.1907 12.8101 20.2707C12.8301 20.2707 12.8501 20.2907 12.8701 20.2907L13.9201 20.5007C14.0701 20.5407 14.1701 20.6707 14.1901 20.8207C14.1901 21.0107 14.4001 25.1807 14.6501 26.2507C14.6901 26.4207 14.8401 26.5207 15.0101 26.5207C15.6201 26.5007 16.1901 26.5007 16.8001 26.4807H16.8601C16.9201 26.4807 16.9901 26.4207 16.9901 26.3507C16.9701 25.9907 16.9101 25.1507 16.8601 24.2707V24.2107C16.8601 24.1507 16.8201 24.0607 16.7501 24.0407C16.4101 23.8507 16.2201 23.4907 16.2001 23.1107C16.1401 21.6607 16.1201 19.9507 16.2001 18.6307C16.2001 18.5007 16.3101 18.4207 16.4101 18.4207C16.5401 18.4207 16.6201 18.5307 16.6201 18.6307V18.6507C16.5801 19.5307 16.5601 20.5707 16.5801 21.6007C16.5801 21.7507 16.7101 21.8507 16.8301 21.8507C16.9801 21.8507 17.0801 21.7207 17.0801 21.6007C17.0601 20.5707 17.0601 19.5207 17.1201 18.6307C17.1201 18.5007 17.2301 18.4207 17.3301 18.4207C17.4601 18.4207 17.5401 18.5307 17.5401 18.6307V18.6507C17.5001 19.5307 17.4801 20.5707 17.5001 21.5807C17.5001 21.7307 17.6301 21.8307 17.7501 21.8307C17.9001 21.8307 18.0001 21.7007 18.0001 21.5807C17.9801 20.5507 17.9801 19.5007 18.0401 18.6307C18.0401 18.5007 18.1501 18.4207 18.2501 18.4207C18.3801 18.4207 18.4601 18.5307 18.4601 18.6307V18.6507C18.3801 19.9307 18.4201 21.5607 18.4601 22.9907V23.0307V23.0507C18.4601 23.4307 18.2701 23.7907 17.9501 24.0007C17.8901 24.0407 17.8701 24.1107 17.8701 24.1707C17.8701 24.1707 17.8501 24.3807 17.9301 25.4507C17.9701 25.9107 18.0101 26.2307 18.0401 26.3807C18.0401 26.4407 18.1001 26.4907 18.1501 26.4907H20.3401C20.4001 26.4907 20.4501 26.4507 20.4501 26.3807C20.6001 25.1207 20.6201 24.4007 20.6201 24.4007C20.6201 24.3407 20.5801 24.2907 20.5101 24.2707L19.7701 24.1607C19.6601 24.1407 19.5801 24.0807 19.5601 23.9907C19.5601 23.9507 19.5401 23.9107 19.5601 23.8807C19.8501 19.6307 21.2401 18.2007 21.2401 18.2007C21.2601 18.1807 21.2801 18.1607 21.3001 18.1407C21.4101 18.0807 21.5301 18.1007 21.6201 18.1807L21.6401 18.2207C21.6401 18.2607 21.6601 18.2807 21.6601 18.3307C21.7901 19.6607 21.7201 21.9307 21.6401 23.7007C21.5801 25.1907 21.4901 26.3707 21.4901 26.3707C21.4901 26.3707 21.5301 26.4507 21.5701 26.4507C21.9701 26.4507 22.3501 26.4707 22.7701 26.4707C22.9401 26.4707 23.0901 26.3607 23.1301 26.2007C23.3801 25.1307 23.5701 20.9607 23.5901 20.7707C23.6101 20.6207 23.7201 20.5007 23.8601 20.4507L24.9101 20.2407C25.1001 20.2007 25.2301 19.9907 25.1801 19.8007C25.2201 19.8007 25.2201 19.7807 25.2001 19.7407L25.2601 19.7507Z" fill="white"/>
</g>
</g>
<defs>
<clipPath id="clip0_30_5608">
<rect width="80" height="40" fill="white"/>
</clipPath>
<clipPath id="clip1_30_5608">
<rect width="80" height="40" fill="white"/>
</clipPath>
</defs>
</svg>
