<svg width="24" height="36" viewBox="0 0 24 36" fill="none" xmlns="http://www.w3.org/2000/svg">
<path d="M12.005 6.36792C8.61297 6.36792 5.87697 9.10392 5.87697 12.4959C5.87697 15.8879 8.61297 18.6239 12.005 18.6239C15.397 18.6239 18.133 15.8879 18.133 12.4959C18.133 9.10392 15.397 6.36792 12.005 6.36792ZM12.005 16.4799C9.81297 16.4799 8.02097 14.6929 8.02097 12.4959C8.02097 10.2979 9.80797 8.51192 12.005 8.51192C14.203 8.51192 15.989 10.2979 15.989 12.4959C15.989 14.6929 14.197 16.4799 12.005 16.4799ZM19.813 6.11692C19.813 6.91192 19.173 7.54692 18.384 7.54692C17.589 7.54692 16.954 6.90692 16.954 6.11692C16.954 5.32692 17.594 4.68692 18.384 4.68692C19.174 4.68692 19.813 5.32692 19.813 6.11692ZM23.872 7.56692C23.782 5.65292 23.344 3.95692 21.942 2.55992C20.543 1.16092 18.847 0.724922 16.932 0.628922C14.96 0.516922 9.04497 0.516922 7.07197 0.628922C5.16197 0.718922 3.46697 1.15692 2.06397 2.55392C0.660965 3.95192 0.228965 5.64792 0.133965 7.56192C0.0199653 9.53592 0.0199653 15.4509 0.132965 17.4239C0.222965 19.3379 0.659965 21.0339 2.06297 22.4319C3.46597 23.8289 5.15597 24.2659 7.07097 24.3619C9.04397 24.4739 14.959 24.4739 16.932 24.3619C18.847 24.2719 20.543 23.8339 21.94 22.4319C23.338 21.0339 23.775 19.3379 23.871 17.4239C23.983 15.4499 23.983 9.54092 23.871 7.56792L23.872 7.56692ZM21.322 19.5409C20.907 20.5859 20.102 21.3909 19.051 21.8129C17.477 22.4369 13.744 22.2929 12.005 22.2929C10.267 22.2929 6.52797 22.4319 4.95997 21.8129C3.91497 21.3969 3.10997 20.5919 2.68797 19.5409C2.06397 17.9679 2.20797 14.2339 2.20797 12.4959C2.20797 10.7569 2.06897 7.01792 2.68797 5.44992C3.10397 4.40492 3.90897 3.59992 4.95997 3.17792C6.53297 2.55392 10.267 2.69792 12.005 2.69792C13.744 2.69792 17.483 2.55992 19.051 3.17792C20.096 3.59392 20.901 4.39992 21.323 5.44992C21.947 7.02392 21.803 10.7569 21.803 12.4959C21.803 14.2339 21.946 17.9729 21.322 19.5409Z" fill="#1D1D1D"/>
</svg>
