<svg width="24" height="36" viewBox="0 0 24 36" fill="none" xmlns="http://www.w3.org/2000/svg">
<path d="M21.534 7.36077C21.548 7.57277 21.548 7.78777 21.548 7.99877C21.548 14.5008 16.598 21.9958 7.552 21.9958C4.762 21.9958 2.175 21.1898 0 19.7888C0.394 19.8348 0.778 19.8488 1.186 19.8488C3.487 19.8488 5.602 19.0708 7.294 17.7488C5.133 17.7028 3.319 16.2868 2.695 14.3368C3 14.3838 3.305 14.4118 3.623 14.4118C4.064 14.4118 4.505 14.3508 4.917 14.2428C2.663 13.7878 0.975 11.8058 0.975 9.41477V9.35477C1.631 9.71977 2.391 9.94877 3.197 9.97777C1.87 9.09577 1.003 7.58677 1.003 5.88077C1.003 4.96677 1.247 4.12777 1.673 3.39577C4.097 6.38577 7.734 8.33577 11.817 8.55277C11.742 8.18677 11.695 7.80677 11.695 7.42777C11.695 4.71777 13.889 2.50977 16.613 2.50977C18.028 2.50977 19.308 3.10577 20.208 4.06177C21.318 3.85077 22.388 3.43877 23.33 2.87577C22.964 4.01977 22.186 4.97577 21.169 5.58577C22.158 5.47777 23.119 5.20577 24 4.82577C23.33 5.79577 22.49 6.66177 21.534 7.36077Z" fill="#1D1D1D"/>
</svg>
