<svg width="50" height="40" viewBox="0 0 50 40" fill="none" xmlns="http://www.w3.org/2000/svg">
<g clip-path="url(#clip0_30_5655)">
<g clip-path="url(#clip1_30_5655)">
<path d="M6.44862 28.5798C5.06862 28.4998 3.83862 28.1198 2.90862 27.4298C2.75862 27.2798 2.28862 26.8898 2.13862 26.6598C1.75862 26.1998 1.51862 25.7398 1.36862 25.2798C0.828624 23.7398 1.13862 21.7398 2.13862 19.5098C2.98862 17.5898 4.36862 15.7398 6.67862 13.1298C6.98862 12.7498 8.05862 11.5898 8.05862 11.5898C8.05862 11.5898 7.97862 11.6698 7.90862 11.8198C7.28862 12.8198 6.75862 14.0498 6.52862 15.0498C6.06862 16.7398 6.14862 18.1298 6.67862 19.2798C7.05862 20.0498 7.75862 20.6598 8.44862 21.0498C9.75862 21.6698 11.6786 21.7398 13.9886 21.1998C14.1386 21.1198 22.0586 19.0498 31.5986 16.5098C41.1386 13.9698 48.8986 11.8998 48.9786 11.8998C48.9786 11.8998 26.8286 21.3598 15.3786 26.2798C13.5286 27.0498 13.0686 27.2798 12.2286 27.5098C9.99862 28.2798 8.07862 28.5898 6.45862 28.5898L6.44862 28.5798Z" fill="white"/>
</g>
</g>
<defs>
<clipPath id="clip0_30_5655">
<rect width="49.25" height="40" fill="white" transform="translate(0.268555)"/>
</clipPath>
<clipPath id="clip1_30_5655">
<rect width="49.25" height="40" fill="white" transform="translate(0.268555)"/>
</clipPath>
</defs>
</svg>
