<svg width="101" height="40" viewBox="0 0 101 40" fill="none" xmlns="http://www.w3.org/2000/svg">
<g clip-path="url(#clip0_30_5659)">
<g clip-path="url(#clip1_30_5659)">
<path d="M15.7242 24.5496V20.53H17.714C18.3139 20.53 18.7838 20.49 19.1838 20.45C19.5838 20.41 19.8937 20.33 20.1737 20.21C20.6937 20.01 21.0436 19.69 21.2436 19.3001C21.4836 18.9001 21.6036 18.4602 21.5636 17.9502C21.5636 17.4703 21.4436 17.0403 21.2436 16.6404C21.0436 16.2804 20.7636 16.0004 20.4037 15.8004C20.1637 15.6804 19.8837 15.6005 19.5338 15.5605C19.1838 15.5205 18.6939 15.4805 18.0639 15.4805H14.8442V24.5096H15.7142V24.5496H15.7242ZM15.7242 19.82V16.2804H17.9139C18.5139 16.2804 18.9838 16.2804 19.3438 16.3204C19.7038 16.3604 19.9837 16.4804 20.2137 16.6404C20.4137 16.7603 20.5337 16.9603 20.6537 17.2003C20.7736 17.4403 20.8136 17.6802 20.8136 18.0002C20.8136 18.4002 20.7337 18.7101 20.5737 18.9601C20.4137 19.2401 20.2137 19.4401 19.8937 19.5601C19.6538 19.68 19.3338 19.76 18.9338 19.8C18.5739 19.84 18.1339 19.88 17.704 19.84H15.7142L15.7242 19.82ZM32.2325 24.5496L29.3728 20.49C30.2127 20.41 30.8426 20.13 31.2826 19.69C31.7226 19.2501 31.9225 18.7001 31.9225 17.9802C31.9225 17.4203 31.8025 16.9903 31.5626 16.5904C31.3226 16.1904 31.0026 15.9504 30.6527 15.7904C30.3327 15.6705 29.9727 15.5905 29.6228 15.5505C29.2228 15.5105 28.8228 15.5105 28.3529 15.5105H25.5732V24.5396H26.3731V20.6H28.5229L31.2226 24.5396H32.2525L32.2325 24.5496ZM26.3831 19.86V16.2804H28.4929C28.9328 16.2804 29.2928 16.2804 29.6028 16.3204C29.9227 16.3604 30.2027 16.4404 30.4027 16.6004C30.6427 16.7603 30.8026 16.9603 30.9226 17.2003C31.0426 17.4403 31.0826 17.7202 31.0826 18.0002C31.0826 18.3202 31.0426 18.5602 30.9626 18.7601C30.8826 18.9601 30.7626 19.1601 30.5627 19.3201C30.3627 19.5201 30.0827 19.6401 29.7228 19.72C29.3628 19.8 28.9628 19.84 28.4929 19.84H26.3831V19.88V19.86ZM37.402 24.5496V15.5205H36.6021V24.5496H37.402ZM50.5307 24.5496V15.5205H49.3408C48.6309 17.3903 48.1109 18.8201 47.7509 19.82C47.391 20.7799 47.111 21.5299 46.951 22.0098C46.7911 22.4898 46.6311 22.9697 46.4711 23.3997C46.3111 22.9197 46.1511 22.4398 45.9511 21.9698C45.7512 21.4499 45.4712 20.7399 45.1112 19.78C44.7513 18.8201 44.2013 17.3903 43.4814 15.5605H42.3315V24.5896H43.1314V17.5503C43.1314 17.0703 43.1314 16.6803 43.0914 16.4004C43.2114 16.8003 43.3714 17.2703 43.5714 17.7902C43.7714 18.3102 44.0513 19.0601 44.4413 20.1C44.8312 21.1399 45.4012 22.6398 46.1511 24.5896H46.791C47.391 22.9997 47.8609 21.6899 48.2609 20.6899C48.6609 19.69 48.9408 18.8601 49.1708 18.1802C49.4008 17.5003 49.6508 16.9103 49.8107 16.3904C49.8107 16.7103 49.7708 17.0703 49.7708 17.5403V24.5796H50.5307V24.5396V24.5496ZM61.8295 24.5496L58.4099 15.5205H57.57L54.0703 24.5496H54.9402L55.9001 21.9198H59.9597L60.9196 24.5496H61.8295ZM56.1801 21.2099C56.5801 20.18 56.89 19.3401 57.09 18.7401C57.33 18.1402 57.49 17.6703 57.61 17.3103C57.73 16.9503 57.8499 16.6704 57.9299 16.4004C58.0099 16.6803 58.1299 16.9603 58.2499 17.3103C58.3699 17.6703 58.5299 18.1102 58.7699 18.7401C59.0098 19.3401 59.2898 20.17 59.6798 21.2099H56.1801ZM72.2085 24.5496L69.3488 20.49C70.1887 20.41 70.8186 20.13 71.2586 19.69C71.6986 19.2501 71.8985 18.7001 71.8985 17.9802C71.8985 17.4203 71.7786 16.9903 71.5386 16.5904C71.2986 16.1904 70.9786 15.9504 70.6287 15.7904C70.3087 15.6705 69.9487 15.5905 69.5988 15.5505C69.1988 15.5105 68.7989 15.5105 68.3289 15.5105H65.5492V24.5396H66.3491V20.6H68.4989L71.1986 24.5396H72.2285L72.2085 24.5496ZM66.3591 19.86V16.2804H68.4689C68.9088 16.2804 69.2688 16.2804 69.5788 16.3204C69.8887 16.3604 70.1787 16.4404 70.3787 16.6004C70.6187 16.7603 70.7787 16.9603 70.8986 17.2003C71.0186 17.4403 71.0586 17.7202 71.0586 18.0002C71.0586 18.3202 71.0186 18.5602 70.9386 18.7601C70.8586 18.9601 70.7387 19.1601 70.5387 19.3201C70.3387 19.5201 70.0587 19.6401 69.6988 19.72C69.3388 19.8 68.9388 19.84 68.4689 19.84H66.3591V19.88V19.86ZM83.6574 24.5496L79.9577 19.0201L83.2574 15.5205H82.2275L77.418 20.65V15.5205H76.6181V24.5496H77.418V21.6899L79.3678 19.6201L82.6675 24.5496H83.6574Z" fill="white"/>
<path d="M86.5872 16.4002C86.5872 16.1202 86.4672 15.8802 86.3072 15.6902C86.1072 15.4902 85.8672 15.4102 85.5972 15.4102C85.3272 15.4102 85.0372 15.5302 84.8872 15.6902C84.6872 15.8902 84.6072 16.1302 84.6072 16.4002C84.6072 16.6702 84.7272 16.9202 84.9272 17.1102C85.1272 17.3002 85.3672 17.3902 85.6872 17.3902C85.9672 17.3902 86.2072 17.2702 86.3972 17.1102C86.4772 16.9502 86.5972 16.7102 86.5972 16.4002H86.5872ZM86.4272 16.4402C86.4272 16.6802 86.3472 16.8802 86.1872 17.0802C86.0272 17.2402 85.8272 17.3202 85.5872 17.3202C85.3472 17.3202 85.1072 17.2402 84.9472 17.0402C84.7872 16.8802 84.7072 16.6802 84.6672 16.4002C84.6672 16.1602 84.7472 15.9202 84.9072 15.7602C85.0672 15.6002 85.2672 15.5202 85.5472 15.5202C85.7872 15.5202 86.0272 15.6002 86.1872 15.7602C86.3472 15.9602 86.4272 16.1602 86.4272 16.4402ZM86.1072 17.0002L85.7872 16.5202C85.8672 16.4802 85.9472 16.4402 85.9872 16.4002C86.0272 16.3202 86.0672 16.2802 86.0672 16.1602C86.0672 16.0802 86.0672 16.0402 86.0272 16.0002C85.9872 15.9602 85.9472 15.9202 85.9072 15.8802C85.8672 15.8802 85.8272 15.8402 85.7872 15.8402H85.1872V17.0302H85.4272V16.5902H85.5872L85.8672 17.0302H86.1072V16.9902V17.0002ZM85.3972 16.3602V16.0402H85.7572C85.7572 16.0402 85.7972 16.0802 85.8372 16.0802C85.8372 16.1202 85.8772 16.1202 85.8772 16.1602V16.2402L85.8372 16.2802C85.8372 16.2802 85.7972 16.2802 85.7572 16.3202H85.3972V16.3602Z" fill="white"/>
</g>
</g>
<defs>
<clipPath id="clip0_30_5659">
<rect width="100.28" height="40" fill="white" transform="translate(0.585693)"/>
</clipPath>
<clipPath id="clip1_30_5659">
<rect width="100.28" height="40" fill="white" transform="translate(0.585693)"/>
</clipPath>
</defs>
</svg>
