<svg width="81" height="40" viewBox="0 0 81 40" fill="none" xmlns="http://www.w3.org/2000/svg">
<g clip-path="url(#clip0_30_5665)">
<g clip-path="url(#clip1_30_5665)">
<path d="M32.5429 19.8994C32.9829 19.8994 33.3129 19.8394 33.5529 19.6894C33.8929 19.4794 34.0329 19.1294 34.0329 18.6894C34.0329 18.2094 33.8629 17.8994 33.5929 17.7194C33.3529 17.5494 33.0129 17.4794 32.5129 17.4794H31.9329V23.1594H30.9429V16.8594H32.6729C33.3229 16.8594 33.8629 16.9294 34.3329 17.2194C35.0429 17.6794 35.0629 18.4094 35.0629 18.5694C35.0629 19.3594 34.6329 19.9494 33.8629 20.2094C33.7929 20.2394 33.7229 20.2494 33.6429 20.2694L35.6729 23.1594H34.5529L32.3229 19.8994H32.5429Z" fill="white"/>
<path d="M14.1928 19.8994C14.6328 19.8994 14.9628 19.8394 15.2028 19.6894C15.5428 19.4794 15.6828 19.1294 15.6828 18.6894C15.6828 18.2094 15.5128 17.8994 15.2428 17.7194C15.0028 17.5494 14.6628 17.4794 14.1628 17.4794H13.5828V23.1594H12.5928V16.8594H14.3228C14.9828 16.8594 15.5228 16.9294 15.9828 17.2194C16.6928 17.6794 16.7128 18.4094 16.7128 18.5694C16.7128 19.3594 16.2828 19.9494 15.5128 20.2094C15.4428 20.2394 15.3728 20.2494 15.2928 20.2694L17.3228 23.1594H16.2028L13.9728 19.8994H14.1928Z" fill="white"/>
<path d="M19.0628 16.8594H18.0728V23.1594H19.0628V16.8594Z" fill="white"/>
<path d="M25.4828 16.8594L23.1128 23.1594H22.3228L19.9128 16.8594H20.9928L22.8628 21.8294L24.6928 16.8594H25.4828Z" fill="white"/>
<path d="M27.2329 22.5394H30.1029V23.1594H26.2429V16.8594H29.8729V17.4694H27.2329V19.5594H29.7729V20.1794H27.2329V22.5394Z" fill="white"/>
<path d="M40.8128 16.8594H39.8228V23.1594H40.8128V16.8594Z" fill="white"/>
<path d="M44.113 16.7305C44.653 16.7305 45.223 16.8505 45.733 17.0605V17.8905C45.143 17.5505 44.533 17.3805 44.033 17.3805C43.403 17.3805 42.943 17.6705 42.943 18.2005C42.943 19.6005 46.163 19.3505 46.163 21.4605C46.163 22.4705 45.423 23.2805 43.893 23.2805C43.233 23.2805 42.573 23.1305 42.033 22.8605V21.9605C42.473 22.3405 43.263 22.6205 43.963 22.6205C44.693 22.6205 45.273 22.3005 45.273 21.6605C45.273 20.1605 42.053 20.4405 42.053 18.3505C42.053 17.2205 43.003 16.7305 44.113 16.7305Z" fill="white"/>
<path d="M48.293 16.8594V22.5394H50.993L50.763 23.1594H47.303V16.8594H48.293Z" fill="white"/>
<path d="M53.0428 20.8696H55.1628L54.0928 18.0996L53.0428 20.8696ZM57.1228 23.1496H56.0328L55.3928 21.4896H52.8028L52.1728 23.1496H51.3828L53.8428 16.8496H54.6328L57.1328 23.1496H57.1228Z" fill="white"/>
<path d="M62.8928 16.8594V23.1594H62.2328L58.6228 18.4494V23.1594H57.8628V16.8594H58.6628L62.1428 21.3994V16.8594H62.8928Z" fill="white"/>
<path d="M67.313 17.8591C66.923 17.6091 66.413 17.4891 65.653 17.4891H65.033V22.5191H65.653C66.353 22.5191 66.913 22.4091 67.313 22.1491C67.933 21.7491 68.233 20.9991 68.233 19.9991C68.233 18.9991 67.943 18.2591 67.313 17.8691M68.333 22.4591C67.773 22.9391 66.953 23.1691 65.973 23.1691H64.033V16.8691H65.973C66.953 16.8691 67.783 17.0891 68.333 17.5691C68.963 18.1191 69.263 18.9791 69.263 20.0091C69.263 21.0391 68.963 21.9091 68.333 22.4491" fill="white"/>
</g>
</g>
<defs>
<clipPath id="clip0_30_5665">
<rect width="80" height="40" fill="white" transform="translate(0.932861)"/>
</clipPath>
<clipPath id="clip1_30_5665">
<rect width="80" height="40" fill="white" transform="translate(0.932861)"/>
</clipPath>
</defs>
</svg>
