<svg width="56" height="24" viewBox="0 0 56 24" fill="none" xmlns="http://www.w3.org/2000/svg">
<path d="M9.53857 0H46.4617V24H9.53857V0Z" fill="white"/>
<path d="M35.7355 12.379H37.9878L38.0247 12.3883H38.0617L38.0893 12.3975H38.117L38.1263 12.4067L38.1632 12.4159L38.2001 12.4252L38.237 12.4436L38.274 12.4529L38.3109 12.4713L38.3386 12.4898L38.3755 12.5083L38.4124 12.5267L38.4493 12.5452L38.4863 12.5729L38.5232 12.6006L38.5509 12.6375C38.5693 12.6375 38.5786 12.6559 38.5878 12.6652L38.6247 12.7021L38.6617 12.7483L38.6986 12.7944L38.7355 12.8498L38.7724 12.9236L38.8001 13.0067C38.815 13.0459 38.8273 13.086 38.837 13.1267C38.8701 13.2757 38.8701 13.4301 38.837 13.579C38.8273 13.6198 38.815 13.6599 38.8001 13.699L38.7724 13.7821L38.7355 13.8467L38.6986 13.9021L38.6617 13.9575L38.6247 13.9944L38.5878 14.0313C38.5878 14.0498 38.5693 14.059 38.5509 14.0683L38.5232 14.096L38.4863 14.1236L38.4493 14.1513L38.4124 14.179L38.3755 14.1975L38.3386 14.2159L38.3109 14.2344L38.274 14.2529L38.237 14.2621L38.2001 14.2713L38.1632 14.2806L38.1263 14.2898H38.117L38.0893 14.299H38.0617L38.0247 14.3083H37.9878L37.9509 14.3175H35.7355V12.379ZM38.597 10.1821C38.6265 10.319 38.6265 10.4606 38.597 10.5975C38.5846 10.6386 38.5692 10.6787 38.5509 10.7175C38.5431 10.7456 38.5338 10.7734 38.5232 10.8006L38.4863 10.8652L38.4493 10.9206L38.4124 10.9667L38.3755 11.0036L38.3386 11.0406L38.3109 11.0683L38.274 11.096L38.237 11.1236L38.2001 11.1421L38.1632 11.1698L38.1263 11.1883L38.0893 11.2067L38.0617 11.2159L38.0247 11.2344H37.9878L37.9509 11.2529H37.914L37.877 11.2713H37.8124L37.7755 11.2806H35.7263V9.50826H37.8586L37.877 9.51749H37.8863L37.9232 9.52672L37.9601 9.53595L37.997 9.54518L38.034 9.55441L38.0709 9.57287L38.0986 9.5821L38.1355 9.60056L38.1724 9.61903L38.2093 9.64672L38.2463 9.66518L38.2832 9.69287L38.3201 9.72056L38.3478 9.74826L38.3847 9.78518L38.4217 9.83133L38.4586 9.86826L38.4955 9.92364L38.5324 9.98826C38.5434 10.0185 38.5526 10.0493 38.5601 10.0806C38.5748 10.1166 38.5872 10.1536 38.597 10.1913V10.1821ZM42.9817 0.89595H43.0001V19.2929C43.0001 19.4036 43.0001 19.5052 42.9817 19.6159L42.9447 19.8929L42.917 20.0775L42.8801 20.2344L42.8432 20.3544C42.8207 20.4259 42.796 20.4967 42.7693 20.5667L42.7324 20.659L42.7047 20.7513L42.6678 20.8252L42.6309 20.899L42.594 20.9729L42.557 21.0375L42.5201 21.1021L42.4832 21.1667L42.4555 21.2221L42.4186 21.2775L42.3817 21.3329L42.3447 21.3883L42.3078 21.4344L42.2709 21.4806L42.2432 21.5267L42.2063 21.5729L42.1693 21.619L42.1324 21.6652L42.0955 21.7021L42.0586 21.7483L42.0217 21.7852L41.994 21.8221L41.957 21.859L41.9201 21.896L41.8832 21.9329L41.8463 21.9606L41.8093 21.9975L41.7817 22.0252L41.7447 22.0621L41.7078 22.0898L41.6709 22.1175L41.634 22.1544L41.597 22.1821L41.5601 22.2098L41.5324 22.2375L41.4955 22.256L41.4586 22.2836L41.4217 22.3113L41.3847 22.339L41.3478 22.3575L41.3201 22.3852L41.2832 22.4036L41.2463 22.4313L41.2093 22.4498L41.1724 22.4683L41.1355 22.4867L41.0986 22.5144L41.0709 22.5329L41.034 22.5513L40.997 22.5698L40.9601 22.5883L40.9232 22.6067L40.8863 22.6159L40.8586 22.6344L40.8217 22.6529L40.7847 22.6713L40.7478 22.6806L40.7109 22.699L40.674 22.7083L40.637 22.7267L40.6093 22.736L40.5724 22.7544L40.5355 22.7636L40.4986 22.7729L40.4617 22.7913L40.4247 22.8006L40.3878 22.8098L40.3601 22.819L40.3232 22.8283L40.2863 22.8375L40.2493 22.8467L40.2124 22.856L40.1755 22.8652L40.1478 22.8744L40.1109 22.8836L40.074 22.8929H40.037L40.0001 22.9113H39.9263L39.8986 22.9298H39.8247L39.7878 22.939H39.7509L39.714 22.9483H39.6493L39.6124 22.9575H39.5017L39.4647 22.9667H33.9263V15.4713H39.8247L39.8617 15.4621H39.9724L40.0093 15.4529H40.0463L40.0832 15.4436H40.1201L40.157 15.4344H40.1847L40.2217 15.4252L40.2586 15.4159H40.2955L40.3324 15.3975H40.3693L40.4063 15.3883L40.434 15.379L40.4709 15.3698L40.5078 15.3606L40.5447 15.3513L40.5817 15.3329H40.6186L40.6463 15.3144L40.6832 15.3052L40.7201 15.2867L40.757 15.2775L40.794 15.259L40.8309 15.2498L40.8678 15.2313L40.8955 15.2129L40.9324 15.1944L40.9693 15.1852L41.0063 15.1667L41.0432 15.1483L41.0801 15.1206L41.1078 15.1021L41.1447 15.0836L41.1817 15.0559L41.2186 15.0375L41.2555 15.0098L41.2924 14.9821L41.3293 14.9544L41.357 14.9267L41.394 14.899L41.4309 14.8713L41.4678 14.8344L41.5047 14.7975L41.5417 14.7606L41.5693 14.7236L41.6063 14.6867L41.6432 14.6406C41.669 14.6076 41.6937 14.5738 41.717 14.539L41.754 14.4836L41.7909 14.419L41.8186 14.3544L41.8555 14.2621L41.8924 14.1698L41.9293 14.0498C41.9451 13.989 41.9575 13.9274 41.9663 13.8652C41.9743 13.7885 41.9774 13.7115 41.9755 13.6344C41.9778 13.5574 41.9747 13.4803 41.9663 13.4036C41.9577 13.3414 41.9453 13.2798 41.9293 13.219L41.8924 13.1083L41.8555 13.016L41.8186 12.9329L41.7909 12.8683L41.754 12.8036L41.717 12.7575C41.6936 12.7258 41.669 12.695 41.6432 12.6652L41.6063 12.6098L41.5693 12.5729L41.5417 12.5359L41.5047 12.499L41.4678 12.4713L41.4309 12.4344L41.394 12.4067L41.357 12.379L41.3293 12.3513L41.2924 12.3236L41.2555 12.2959L41.2186 12.2775L41.1817 12.2498L41.1447 12.2313L41.1078 12.2036L41.0801 12.1852L41.0432 12.1667L41.0063 12.1483L40.9693 12.1298L40.9324 12.1113L40.8955 12.1021L40.8678 12.0836L40.8309 12.0652L40.794 12.056L40.757 12.0375L40.7201 12.0283L40.6832 12.019L40.6463 12.0006H40.6186L40.5817 11.9821L40.5447 11.9729L40.5078 11.9636L40.4709 11.9544L40.434 11.9452L40.397 11.936L40.3693 11.9267H40.3324L40.2955 11.9083H40.2586L40.2217 11.899H40.1847L40.157 11.8898H40.1201L40.0832 11.8806H40.0463L40.0093 11.8713H39.9724L39.9355 11.8621H39.8709V11.8159H39.9078L39.9355 11.8067L39.9724 11.7975H40.0093L40.0463 11.779H40.0832L40.1201 11.7698L40.157 11.7606L40.1847 11.7513L40.2217 11.7421L40.2586 11.7236H40.2955L40.3324 11.7052L40.3693 11.6959L40.4063 11.6775L40.434 11.6683L40.4709 11.6498L40.5078 11.6406L40.5447 11.6221L40.5817 11.6036L40.6186 11.5852L40.6463 11.5667L40.6832 11.5483L40.7201 11.5298L40.757 11.5113L40.794 11.4836L40.8309 11.4652L40.8678 11.4375L40.8955 11.4098L40.9324 11.3821L40.9693 11.3544L41.0063 11.3267L41.0432 11.2898L41.0801 11.2621L41.1078 11.2252L41.1447 11.179L41.1817 11.1421L41.2186 11.096L41.2555 11.0498L41.2924 11.0036L41.3293 10.939L41.357 10.8836L41.394 10.8098L41.4309 10.7267L41.4678 10.6344L41.5047 10.5052C41.5218 10.4353 41.5341 10.3644 41.5417 10.2929C41.5444 10.2375 41.5444 10.1821 41.5417 10.1267V9.9421C41.534 9.8706 41.5217 9.79967 41.5047 9.7298L41.4678 9.6098L41.4309 9.51749L41.394 9.42518L41.357 9.36057L41.3293 9.29595L41.2924 9.24057L41.2555 9.19441L41.2186 9.14826C41.2066 9.13264 41.1943 9.11725 41.1817 9.1021L41.1447 9.06518L41.1078 9.02826L41.0801 8.99133L41.0432 8.96364L41.0063 8.92672L40.9693 8.89903L40.9324 8.87133L40.8955 8.84364L40.8678 8.81595L40.8309 8.79749L40.794 8.7698L40.757 8.75133L40.7201 8.73287L40.6832 8.71441L40.6463 8.69595L40.6186 8.67749L40.5817 8.65903L40.5447 8.64056L40.5078 8.63133L40.4709 8.61287L40.434 8.59441L40.4063 8.58518L40.3693 8.57595L40.3324 8.55749L40.2955 8.54826L40.2586 8.53903L40.2217 8.5298L40.1847 8.52056L40.157 8.51133L40.1201 8.5021L40.0832 8.49287L40.0463 8.48364L40.0093 8.47441H39.9724L39.9355 8.45595H39.8709L39.834 8.44672L39.797 8.43749H39.7601L39.7232 8.42826H39.6586L39.6217 8.41903H39.5109L39.5017 8.4098H39.3355L39.2986 8.40057H33.9355V4.5698C33.934 4.31562 33.9587 4.06197 34.0093 3.81287L34.0463 3.66518L34.0832 3.53595L34.1201 3.41595L34.1478 3.31441L34.1847 3.2221L34.2217 3.1298L34.2586 3.05595L34.2955 2.97287L34.3324 2.90826L34.3693 2.83441L34.397 2.7698L34.434 2.70518L34.4709 2.6498L34.5078 2.59441L34.5447 2.53903L34.5817 2.48364L34.6093 2.43749L34.6463 2.3821L34.6832 2.33595L34.7201 2.2898L34.757 2.24364L34.794 2.20672L34.8309 2.16056L34.8586 2.12364L34.8955 2.08672L34.9324 2.04056L34.9693 2.00364L35.0063 1.97595L35.0432 1.93903L35.0709 1.9021L35.1078 1.86518L35.1447 1.83749L35.1817 1.80056L35.2186 1.77287L35.2555 1.74518L35.2924 1.71749L35.3201 1.6898L35.357 1.6621L35.394 1.63441L35.4309 1.60672L35.4678 1.57903L35.5047 1.55133L35.5324 1.52364L35.5693 1.50518L35.6063 1.47749L35.6432 1.45903L35.6801 1.43133L35.717 1.41287L35.754 1.39441L35.7817 1.37595L35.8186 1.34826L35.8555 1.3298L35.8924 1.31133L35.9293 1.29287L35.9663 1.27441L35.994 1.25595L36.0309 1.23749L36.0678 1.22826L36.1047 1.2098L36.1417 1.19133L36.1786 1.1821L36.2155 1.16364L36.2432 1.14518L36.2801 1.13595L36.317 1.11749L36.354 1.10826L36.3909 1.09903L36.4278 1.08056L36.4555 1.07133L36.4924 1.0621L36.5293 1.05287L36.5663 1.03441H36.6032L36.6401 1.01595H36.677L36.7047 0.997488H36.7417L36.7786 0.979026H36.8155L36.8524 0.969796L36.8893 0.960565L36.9263 0.951334H36.954L36.9909 0.942103L37.0278 0.932873H37.0647L37.1017 0.923642H37.1386L37.1663 0.914411H37.2032L37.2401 0.90518H37.314L37.3509 0.89595H37.5632L37.6001 0.886719H42.9909L42.9817 0.89595Z" fill="#55B147"/>
<path d="M13.5816 13.6621V4.57903C13.5807 4.32793 13.6054 4.07741 13.6554 3.83133L13.6923 3.67441L13.72 3.54518L13.7569 3.42518C13.7797 3.35986 13.8043 3.29522 13.8308 3.23133L13.8677 3.13903L13.9046 3.06518L13.9323 2.9821L13.9693 2.91749L14.0062 2.84364L14.0431 2.77903L14.08 2.72364L14.1169 2.65903L14.1539 2.60364L14.1816 2.54826L14.2185 2.49287L14.2554 2.44672L14.2923 2.40056L14.3293 2.34518L14.3662 2.29903L14.3939 2.2621L14.4308 2.21595L14.4677 2.1698L14.5046 2.13287L14.5416 2.09595L14.5785 2.05903L14.6062 2.0221L14.6431 1.98518L14.68 1.94826L14.7169 1.91133L14.7539 1.88364L14.7908 1.84672L14.8185 1.81903L14.8554 1.7821L14.8923 1.75441L14.9293 1.72672L14.9662 1.69903L15.0031 1.67133L15.04 1.64364L15.0677 1.61595L15.1046 1.58826L15.1416 1.56056L15.1785 1.5421L15.2154 1.51441L15.2523 1.49595L15.28 1.46826L15.3169 1.4498L15.3539 1.4221L15.3908 1.40364L15.4277 1.38518L15.4646 1.36672L15.4923 1.33903L15.5293 1.32056L15.5662 1.3021L15.6031 1.28364L15.64 1.27441L15.6769 1.25595L15.7046 1.23749L15.7416 1.21903L15.7785 1.20056L15.8154 1.19133L15.8523 1.17287L15.8893 1.16364L15.9262 1.14518L15.9539 1.13595L16 1.10826L16.0369 1.09903L16.0739 1.08056H16.1108L16.1477 1.0621L16.1754 1.05287L16.2123 1.04364L16.2493 1.02518H16.2862L16.3231 1.00672H16.36L16.3877 0.988257H16.4246L16.4616 0.979026L16.4985 0.969796L16.5354 0.960565H16.5723L16.6 0.942103H16.6739L16.7016 0.923642H16.8769L16.9231 0.90518H16.9969L17.0154 0.89595H17.2L17.2369 0.886719H22.6554V19.2929C22.6531 19.4504 22.6408 19.6077 22.6185 19.7636C22.6185 19.8375 22.6 19.9113 22.5816 19.9852L22.5539 20.1513L22.5169 20.2898L22.48 20.4006L22.4431 20.5113L22.4062 20.6036L22.3693 20.696L22.3416 20.779L22.3046 20.8529L22.2677 20.9267L22.2308 21.0006L22.1939 21.0652L22.1569 21.1298L22.1293 21.1852C22.1172 21.2068 22.1049 21.2284 22.0923 21.2498L22.0554 21.3052L22.0185 21.3513L21.9816 21.4067L21.9446 21.4529L21.9077 21.499L21.88 21.5452L21.8431 21.5913L21.8062 21.6375L21.7693 21.6836L21.7323 21.7206L21.6954 21.7575L21.6677 21.7944L21.6308 21.8406L21.5939 21.8683L21.5569 21.9052L21.52 21.9421L21.4831 21.979L21.4554 22.0067L21.4185 22.0436L21.3816 22.0713L21.3446 22.099L21.3077 22.136L21.2708 22.1636L21.2431 22.1913L21.2062 22.219L21.1693 22.2467L21.1323 22.2652L21.0954 22.2929L21.0585 22.3206L21.0216 22.3483L20.9939 22.3667L20.9569 22.3944L20.92 22.4129L20.8831 22.4313L20.8462 22.459L20.8093 22.4775L20.7816 22.496L20.7446 22.5144L20.7077 22.5329L20.6708 22.5513L20.6339 22.5698L20.5969 22.5883L20.5693 22.6067L20.5323 22.6252L20.4954 22.6436L20.4585 22.6529L20.4216 22.6713L20.3846 22.6898L20.3569 22.699L20.32 22.7175L20.2831 22.7267L20.2462 22.7452L20.2093 22.7544L20.1723 22.7729H20.1354L20.1077 22.7913L20.0708 22.8006L20.0339 22.819H19.9969L19.96 22.8375H19.9231L19.8954 22.856H19.8585L19.8216 22.8744H19.7846L19.7477 22.8836L19.7108 22.8929L19.6831 22.9021H19.6462L19.6093 22.9113L19.5723 22.9206H19.5354L19.4985 22.9298H19.4708L19.4339 22.939H19.3969L19.36 22.9483H19.2862L19.2493 22.9575H19.1477L19.1108 22.9667H13.5816V15.2129L13.6554 15.2406H13.6923L13.72 15.2498L13.7569 15.259L13.7939 15.2683L13.8308 15.2775L13.8677 15.2867H13.9046L13.9323 15.3052H13.9693L14.0062 15.3144L14.0431 15.3236L14.08 15.3329H14.1169L14.1539 15.3513H14.1816L14.2185 15.3606L14.2554 15.3698H14.2923L14.3293 15.379L14.3662 15.3883H14.3939L14.4308 15.4067H14.4677L14.5046 15.4159H14.5416L14.5785 15.4252L14.6062 15.4344H14.6431L14.68 15.4436L14.7169 15.4529H14.7539L14.7908 15.4621H14.8185L14.8554 15.4713L14.8923 15.4806H14.9293L14.9662 15.4898H15.0031L15.04 15.499H15.0677L15.1046 15.5083L15.1416 15.5175H15.1785L15.2154 15.5267H15.2523L15.28 15.5359H15.3169L15.3539 15.5452H15.3908L15.4277 15.5544H15.4923L15.5293 15.5636H15.5662L15.6031 15.5729H15.64L15.6769 15.5821H15.7416L15.7785 15.5913H15.8154L15.8523 15.6006H15.9262L15.9539 15.6098H16.0277L16.0646 15.619H16.1385L16.1662 15.6283H16.2769L16.3139 15.6375H16.4154L16.4523 15.6467H16.5908L16.6277 15.6559H16.8123L16.84 15.6652H18.0123L18.0493 15.6559H18.1508L18.1877 15.6467H18.2616L18.2985 15.6375H18.3631L18.4 15.6283H18.4739L18.5108 15.619H18.5846L18.6123 15.6098H18.6493L18.6862 15.6006H18.7231L18.76 15.5913H18.7969L18.8246 15.5821H18.8616L18.8985 15.5729L18.9354 15.5636H18.9723L19.0093 15.5544L19.0369 15.5452H19.0739L19.1108 15.5359L19.1477 15.5267H19.1846L19.2216 15.5083H19.2493L19.2862 15.499H19.3231L19.36 15.4806H19.3969L19.4339 15.4621H19.4708L19.4985 15.4529L19.5354 15.4436L19.5723 15.4344L19.6093 15.4252L19.6462 15.4159L19.6831 15.4067L19.7108 15.3883H19.7477L19.7846 15.3698L19.8216 15.3606L19.8585 15.3513L19.8954 15.3329H19.9231L19.96 15.3144L19.9969 15.2959L20.0339 15.2867L20.0708 15.2775L20.1077 15.259L20.1354 15.2498L20.1723 15.2313L20.2093 15.2129L20.2462 15.2036L20.2831 15.1852L20.32 15.1667L20.3569 15.1575L20.3846 15.139L20.4216 15.1206L20.4585 15.1021L20.4954 15.0836L20.5323 15.0652L20.5693 15.0467L20.5969 15.0283L20.6339 15.0006L20.6708 14.9821L20.7077 14.9636L20.7446 14.936L20.7816 14.9175L20.8093 14.8898L20.8462 14.8621L20.8831 14.8436L20.92 14.8159L20.9569 14.7883L20.9939 14.7606L21.0216 14.7236L21.0585 14.6959L21.0954 14.6683L21.1323 14.6313L21.1693 14.5944L21.2062 14.5575L21.2431 14.5206L21.2708 14.4836L21.3077 14.4467L21.3446 14.4006L21.3816 14.3544C21.4069 14.3242 21.4315 14.2935 21.4554 14.2621L21.4831 14.2067L21.52 14.1513L21.5569 14.0867L21.5939 14.0221L21.6308 13.9483L21.6677 13.8744L21.6954 13.7821L21.7323 13.6898L21.7693 13.579L21.8062 13.4498L21.8431 13.2836L21.88 13.0344L21.8985 12.6652V8.39133H18.76L18.7323 12.6652L18.7231 12.859C18.7156 12.9397 18.7032 13.0198 18.6862 13.099L18.6493 13.2467L18.6123 13.3483L18.5846 13.4406L18.5477 13.5236C18.5251 13.5678 18.5004 13.6109 18.4739 13.6529L18.4369 13.7083L18.4 13.7544C18.3796 13.7859 18.358 13.8167 18.3354 13.8467L18.2985 13.8929L18.2616 13.9298L18.2246 13.9667L18.1877 13.9944L18.1508 14.0313L18.1231 14.059L18.0862 14.0867L18.0493 14.1144L18.0123 14.1421L17.9754 14.1606L17.9385 14.1883L17.9108 14.2067L17.8739 14.2252L17.8369 14.2436L17.8 14.2621L17.7631 14.2806L17.7262 14.299L17.6985 14.3175L17.6616 14.3267L17.6246 14.3452L17.5877 14.3544L17.5508 14.3636L17.5139 14.3821H17.4769L17.4493 14.4006H17.4123L17.3754 14.419H17.3385L17.3016 14.4375H17.2646L17.2369 14.4467H17.2L17.1631 14.4559H17.1262L17.0893 14.4652H17.0523L17.0246 14.4744H16.9139L16.8769 14.4836H16.4154L16.3785 14.4744H16.3139L16.2769 14.4652H16.2031L16.1662 14.4559H16.1016L16.0646 14.4467H16.0277L15.9908 14.4375H15.9539L15.9262 14.4283L15.8893 14.419H15.8523L15.8154 14.4098H15.7785L15.7416 14.3913H15.7046L15.6769 14.3821H15.6308L15.5939 14.3729L15.5569 14.3636L15.52 14.3544H15.4831L15.4554 14.3359H15.4185L15.3816 14.3267L15.3446 14.3175L15.3077 14.3083L15.2708 14.299L15.2431 14.2898L15.2062 14.2806L15.1693 14.2713L15.1323 14.2621L15.0954 14.2529L15.0585 14.2436L15.0308 14.2344L14.9939 14.2159H14.9569L14.92 14.1975L14.8831 14.1883L14.8462 14.179L14.8093 14.1698L14.7816 14.1513L14.7446 14.1421L14.7077 14.1329L14.6708 14.1144H14.6339L14.5969 14.096L14.5693 14.0775H14.5323L14.4954 14.059L14.4585 14.0406L14.4216 14.0313L14.3846 14.0129L14.3569 14.0036L14.32 13.9852L14.2831 13.976L14.2462 13.9575L14.2093 13.9483L14.1723 13.9298L14.1446 13.9206L14.1077 13.9021L14.0708 13.8929L14.0339 13.8744L13.9969 13.8559L13.9693 13.8467L13.9323 13.8283L13.9046 13.8098L13.8677 13.8006L13.8308 13.7821L13.7939 13.7636L13.7569 13.7452L13.72 13.7267L13.6923 13.7175L13.6554 13.699L13.5816 13.6621Z" fill="#0D6DB5"/>
<path d="M23.8278 9.32222L23.7539 9.38684V4.57761C23.7531 4.32651 23.7778 4.07599 23.8278 3.82992L23.8647 3.67299L23.9016 3.54376L23.9385 3.42376L23.9755 3.33145L24.0124 3.22992L24.0401 3.13761L24.077 3.06376L24.1139 2.98992L24.1509 2.91607L24.1878 2.84222L24.2247 2.77761L24.2524 2.72222L24.2893 2.65761L24.3262 2.60222L24.3632 2.54684L24.4001 2.49145L24.437 2.4453L24.4739 2.39915L24.5016 2.34376L24.5385 2.29761L24.5755 2.26069L24.6124 2.21453L24.6493 2.17761L24.6862 2.13145L24.7139 2.09453L24.7509 2.05761L24.7878 2.02069L24.8247 1.98376L24.8616 1.94684L24.8985 1.90992L24.9262 1.88222L24.9632 1.8453L25.0001 1.81761L25.037 1.78068L25.0739 1.75299L25.1109 1.7253L25.1385 1.69761L25.1755 1.66992L25.2124 1.64222L25.2493 1.61453L25.2862 1.58684L25.3232 1.55915L25.3601 1.54068L25.3878 1.51299L25.4247 1.49453L25.4616 1.46684L25.4985 1.44838L25.5355 1.42068L25.5724 1.40222L25.6001 1.38376L25.637 1.3653L25.6739 1.33761L25.7109 1.31915L25.7478 1.30069L25.7847 1.28222L25.8124 1.27299L25.8493 1.25453L25.8862 1.23607L25.9232 1.21761L25.9601 1.19915L25.997 1.18992L26.0247 1.17145L26.0616 1.16222L26.0985 1.14376L26.1355 1.13453L26.1724 1.11607L26.2093 1.10684L26.2462 1.08838H26.2739L26.3109 1.06992L26.3478 1.06069L26.3847 1.05145L26.4216 1.03299H26.4585L26.4862 1.01453H26.5232L26.5601 0.99607H26.597L26.6339 0.986839L26.6709 0.977608L26.6985 0.968377H26.7355L26.7724 0.949916H26.8462L26.8832 0.940685L26.9201 0.931454H26.9478L26.9847 0.922224H27.0585L27.0955 0.912993H27.1601L27.197 0.903762H27.3724L27.4093 0.894531H32.8278V19.2915C32.8281 19.4457 32.8189 19.5999 32.8001 19.753L32.7632 19.9838L32.7262 20.1499L32.6893 20.2884L32.6616 20.3991L32.6247 20.5099L32.5878 20.6022L32.5509 20.6945L32.5139 20.7776L32.477 20.8515L32.4493 20.9253L32.4124 20.9991L32.3755 21.0638L32.3385 21.1284L32.3016 21.1838L32.2647 21.2484L32.237 21.3038L32.2001 21.3499L32.1632 21.4053L32.1262 21.4515L32.0893 21.4976L32.0524 21.5438L32.0247 21.5899L31.9878 21.6361L31.9509 21.6822L31.9139 21.7191L31.877 21.7561L31.8401 21.793L31.8032 21.8391L31.7755 21.8668L31.7385 21.9038L31.7016 21.9407L31.6647 21.9776L31.6278 22.0053L31.5909 22.0422L31.5632 22.0699L31.5262 22.0976L31.4893 22.1345L31.4524 22.1622L31.4155 22.1899L31.3785 22.2176L31.3509 22.2453L31.3139 22.2638L31.277 22.2915L31.2401 22.3191L31.2032 22.3468L31.1662 22.3653L31.1293 22.393L31.1016 22.4115L31.0647 22.4299L31.0278 22.4576L30.9909 22.4761L30.9539 22.4945L30.917 22.513L30.8893 22.5315L30.8524 22.5499L30.8155 22.5684L30.7785 22.5868L30.7416 22.6053L30.7047 22.6238L30.677 22.6422L30.6401 22.6515L30.6032 22.6699L30.5662 22.6884L30.5293 22.6976L30.4924 22.7161L30.4647 22.7253L30.4278 22.7438L30.3909 22.753L30.3539 22.7715H30.317L30.2801 22.7899L30.2432 22.7991L30.2155 22.8084L30.1785 22.8268H30.1416L30.1047 22.8453H30.0678L30.0309 22.8638H30.0032L29.9662 22.8822H29.9293L29.8924 22.8915L29.8555 22.9007H29.8185L29.7909 22.9099L29.7539 22.9191H29.717L29.6801 22.9284H29.6432L29.6062 22.9376H29.5785L29.5416 22.9468H29.4678L29.4309 22.9561H29.3293L29.2924 22.9653H23.7539V14.473L23.8278 14.5376L23.8647 14.5653L23.9016 14.593L23.9385 14.6207L23.9755 14.6484L24.0124 14.6761L24.0401 14.6945L24.077 14.7222L24.1139 14.7407L24.1509 14.7684L24.1878 14.7868L24.2247 14.8145L24.2524 14.833L24.2893 14.8515L24.3262 14.8791L24.3632 14.8976L24.4001 14.9161L24.437 14.9345L24.4739 14.953L24.5016 14.9715L24.5385 14.9899L24.5755 15.0084L24.6124 15.0268L24.6493 15.0453L24.6862 15.0545L24.7139 15.073L24.7509 15.0915L24.7878 15.1007L24.8247 15.1191L24.8616 15.1376L24.8985 15.1468L24.9262 15.1653L24.9632 15.1745L25.0001 15.193L25.037 15.2022L25.0739 15.2207L25.1109 15.2299L25.1385 15.2391L25.1755 15.2576L25.2124 15.2668L25.2493 15.2761L25.2862 15.2945H25.3232L25.3601 15.313L25.3878 15.3222L25.4247 15.3315L25.4616 15.3407L25.4985 15.3499L25.5355 15.3684H25.5724L25.6001 15.3868H25.637L25.6739 15.4053H25.7109L25.7478 15.4145L25.7847 15.4238L25.8124 15.433L25.8493 15.4422L25.8862 15.4515H25.9232L25.9601 15.4699H25.997L26.0247 15.4791L26.0616 15.4884H26.0985L26.1355 15.5068H26.2093L26.2462 15.5253H26.3109L26.3478 15.5438H26.4216L26.4585 15.553H26.4862L26.5232 15.5622L26.5601 15.5715H26.597L26.6339 15.5807H26.6985L26.7355 15.5899H26.7724L26.8093 15.5991H26.8462L26.8832 15.6084H26.9478L26.9847 15.6176H27.0585L27.0955 15.6268H27.1601L27.197 15.6361H27.2709L27.3078 15.6453H27.4462L27.4832 15.6545H27.6585L27.6955 15.6638H28.1201L28.157 15.673H28.6924L28.7201 15.6638H28.9232L28.9416 15.6545H29.0893L29.1262 15.6453H29.2185L29.2555 15.6361H29.3293L29.357 15.6268H29.4309L29.4678 15.6176H29.5416L29.5785 15.6084H29.6062L29.6432 15.5991H29.6801L29.717 15.5899H29.7909L29.8185 15.5807H29.8555L29.8924 15.5715H29.9293L29.9662 15.5622H30.0032L30.0309 15.553H30.0678L30.1047 15.5438H30.1416L30.1785 15.5345L30.2155 15.5253H30.2432L30.2801 15.5161H30.317L30.3539 15.5068H30.3909L30.4278 15.4884H30.4924L30.5293 15.4791L30.5662 15.4699H30.6032L30.6401 15.4607L30.677 15.4515H30.7047L30.7416 15.4422L30.7785 15.433H30.8155L30.8524 15.4238L30.8893 15.4145H30.917L30.9539 15.3961H30.9909L31.0278 15.3868H31.0647L31.1016 15.3684H31.1385L31.1662 15.3591H31.2032L31.2401 15.3407H31.277L31.3139 15.3315L31.3509 15.3222L31.3785 15.313H31.4155L31.4524 15.2945H31.4893L31.5262 15.2853L31.5632 15.2761L31.5909 15.2668H31.6278L31.6647 15.2484H31.7016L31.7385 15.2299H31.7755L31.8032 15.2207V13.6515L31.7755 13.6791L31.7385 13.6976L31.7016 13.7161L31.6647 13.7253L31.6278 13.7438L31.5909 13.7622L31.5632 13.7807L31.5262 13.7991L31.4893 13.8084L31.4524 13.8268L31.4155 13.8453L31.3785 13.8638L31.3509 13.873L31.3139 13.8915L31.277 13.9099L31.2401 13.9191L31.2032 13.9376L31.1662 13.9561L31.1293 13.9653L31.1016 13.9838L31.0647 13.993L31.0278 14.0115L30.9909 14.0207L30.9539 14.0391L30.917 14.0484L30.8893 14.0668H30.8524L30.8155 14.0853L30.7785 14.1038L30.7416 14.113L30.7047 14.1222L30.677 14.1407H30.6401L30.6032 14.1591L30.5662 14.1684L30.5293 14.1868H30.4924L30.4647 14.2053L30.4278 14.2145L30.3909 14.2238L30.3539 14.233L30.317 14.2422L30.2801 14.2515L30.2432 14.2607L30.2155 14.2699L30.1785 14.2791L30.1416 14.2884L30.1047 14.2976L30.0678 14.3068L30.0309 14.3161L30.0032 14.3253H29.9662L29.9293 14.3438H29.8924L29.8555 14.353L29.8185 14.3622H29.7909L29.7539 14.3807H29.6801L29.6432 14.3991H29.5785L29.5416 14.4084L29.5047 14.4176H29.4678L29.4309 14.4268H29.3939L29.357 14.4361H29.3293L29.2924 14.4453H29.2185L29.1816 14.4545H29.1447L29.117 14.4638H29.0247L29.0062 14.473H28.8678L28.8309 14.4822H28.2955L28.2585 14.473H28.1939L28.157 14.4638H28.1201L28.0832 14.4545H28.0462L28.0185 14.4453H27.9816L27.9447 14.4361L27.9078 14.4268H27.8709L27.8339 14.4176L27.8062 14.4084L27.7693 14.3991H27.7324L27.6955 14.3807H27.6585L27.6216 14.3622H27.5847L27.557 14.3438L27.5201 14.3345L27.4832 14.3253L27.4462 14.3068H27.4093L27.3724 14.2884L27.3447 14.2699L27.3078 14.2607L27.2709 14.2422L27.2339 14.233L27.197 14.2145L27.1601 14.1961L27.1324 14.1776L27.0955 14.1684L27.0585 14.1499L27.0216 14.1315L26.9847 14.1038L26.9478 14.0853L26.9201 14.0668L26.8832 14.0391L26.8462 14.0207L26.8093 13.993L26.7724 13.9745L26.7355 13.9468L26.6985 13.9191L26.6709 13.8915L26.6339 13.8638L26.597 13.8268L26.5601 13.7991L26.5232 13.7622L26.4862 13.7253L26.4585 13.6884L26.4216 13.6515L26.3847 13.6053L26.3478 13.5684L26.3109 13.5222C26.2983 13.504 26.2859 13.4855 26.2739 13.4668L26.2462 13.4207L26.2093 13.3653L26.1724 13.3007L26.1355 13.2453L26.0985 13.1715L26.0616 13.0976C26.0376 13.037 26.016 12.9754 25.997 12.913L25.9601 12.8115L25.9232 12.6822L25.8862 12.5068L25.8493 12.2484L25.8401 11.9345L25.8493 11.6115L25.8862 11.353L25.9232 11.1868L25.9601 11.0576L25.997 10.9468C26.0161 10.8845 26.0376 10.8229 26.0616 10.7622L26.0985 10.6884L26.1355 10.6238L26.1724 10.5591L26.2093 10.5038L26.2462 10.4484L26.2739 10.393L26.3109 10.3468L26.3478 10.3007L26.3847 10.2545L26.4216 10.2176L26.4585 10.1715L26.4862 10.1345L26.5232 10.0976L26.5601 10.0699L26.597 10.033L26.6339 10.0053L26.6709 9.97761L26.6985 9.94991L26.7355 9.92222L26.7724 9.89453L26.8093 9.86684L26.8462 9.83915L26.8832 9.82068L26.9201 9.80222L26.9478 9.77453L26.9847 9.75607L27.0216 9.73761L27.0585 9.71915L27.0955 9.70068L27.1324 9.68222L27.1601 9.66376L27.197 9.6453L27.2339 9.63607L27.2709 9.61761L27.3078 9.60838L27.3447 9.58992L27.3724 9.58068L27.4093 9.56222L27.4462 9.55299L27.4832 9.54376L27.5201 9.5253H27.557L27.5847 9.50684H27.6216L27.6585 9.48838H27.6955L27.7324 9.46992H27.7693L27.8062 9.46068L27.8339 9.45145H27.8709L27.9078 9.43299H27.9816L28.0185 9.41453H28.0832L28.1201 9.4053H28.1939L28.2309 9.39607H28.2955L28.3324 9.38684H28.4709L28.5078 9.37761H28.9324L28.9693 9.38684H29.0432L29.0801 9.39607H29.1447L29.1816 9.4053H29.2555L29.2924 9.41453H29.3293L29.357 9.42376H29.3939L29.4309 9.43299H29.4678L29.5047 9.44222H29.5416L29.5785 9.45145L29.6062 9.46068H29.6432L29.6801 9.46992L29.717 9.47915H29.7539L29.7909 9.48838L29.8185 9.49761H29.8555L29.8924 9.51607H29.9293L29.9662 9.5253L30.0032 9.53453L30.0309 9.54376L30.0678 9.55299H30.1047L30.1416 9.57145H30.1785L30.2155 9.58992H30.2432L30.2801 9.60838H30.317L30.3539 9.62684L30.3909 9.63607L30.4278 9.6453L30.4647 9.65453L30.4924 9.66376L30.5293 9.68222H30.5662L30.6032 9.70068L30.6401 9.70992L30.677 9.72838H30.7047L30.7416 9.74684L30.7785 9.75607L30.8155 9.77453L30.8524 9.78376L30.8893 9.80222L30.917 9.81145L30.9539 9.82992L30.9909 9.83915L31.0278 9.84838L31.0647 9.86684L31.1016 9.8853L31.1293 9.89453L31.1662 9.91299L31.2032 9.92222L31.2401 9.94068L31.277 9.95915L31.3139 9.96838L31.3509 9.98684L31.3785 10.0053L31.4155 10.0145L31.4524 10.033L31.4893 10.0515L31.5262 10.0699L31.5632 10.0791L31.5909 10.0976L31.6278 10.1161L31.6647 10.1345L31.7016 10.153L31.7385 10.1715L31.7755 10.1899L31.8032 10.2084V8.63915H31.7755L31.7385 8.62992H31.6924L31.6555 8.61145H31.6185L31.5816 8.59299H31.5539L31.517 8.58376L31.4801 8.57453L31.4432 8.5653H31.4062L31.3693 8.54684H31.3416L31.3047 8.53761L31.2678 8.52838H31.2309L31.1939 8.50992H31.157L31.1201 8.50068L31.0924 8.49145H31.0555L31.0185 8.48222L30.9816 8.47299L30.9447 8.46376H30.9078L30.8801 8.45453L30.8432 8.4453H30.8062L30.7693 8.41761H30.6955L30.6678 8.39915H30.5939L30.557 8.38068H30.4832L30.4555 8.37145L30.4185 8.36222H30.3816L30.3447 8.35299H30.3078L30.2709 8.34376L30.2339 8.33453H30.2062L30.1693 8.3253H30.1324L30.0955 8.31607H30.0585L30.0309 8.30684H29.9293L29.8924 8.29761H29.8555L29.8185 8.28838H29.7909L29.7539 8.27915H29.717L29.6801 8.26992H29.6062L29.5785 8.26068H29.5416L29.5047 8.25145H29.4309L29.3939 8.24222H29.3293L29.2924 8.23299H29.2185L29.1816 8.22376H29.0801L29.0432 8.21453H28.8678L28.8309 8.2053H28.5816L28.5447 8.19607H27.5847L27.557 8.2053H27.4093L27.3724 8.21453H27.2709L27.2339 8.22376H27.1324L27.0955 8.23299H27.0216L26.9847 8.24222H26.9478L26.9201 8.25145H26.8462L26.8093 8.26068H26.7724L26.7355 8.26992H26.6985L26.6709 8.27915H26.6339L26.597 8.28838H26.5601L26.5232 8.30684H26.4862L26.4585 8.31607H26.4216L26.3847 8.3253H26.3478L26.3109 8.34376H26.2462L26.2093 8.36222H26.1355L26.0985 8.38068H26.0616L26.0247 8.38992L25.997 8.39915H25.9601L25.9232 8.41761H25.8862L25.8493 8.42684L25.8124 8.43607L25.7847 8.4453L25.7478 8.45453H25.7109L25.6739 8.47299H25.637L25.6001 8.49145H25.5724L25.5355 8.50992L25.4985 8.51915L25.4616 8.52838L25.4247 8.53761L25.3878 8.54684L25.3601 8.5653H25.3232L25.2862 8.58376L25.2493 8.59299L25.2124 8.60222L25.1755 8.62068L25.1385 8.62992L25.1109 8.63915L25.0739 8.65761L25.037 8.66684L25.0001 8.6853L24.9632 8.69453L24.9262 8.71299L24.8985 8.72222L24.8616 8.74068L24.8247 8.74991L24.7878 8.76838L24.7509 8.78684L24.7139 8.79607L24.6862 8.81453L24.6493 8.83299L24.6124 8.85145L24.5755 8.86992L24.5385 8.88838L24.5016 8.89761L24.4739 8.91607L24.437 8.94376L24.4001 8.96222L24.3632 8.98068L24.3262 8.99915L24.2893 9.01761L24.2524 9.03607L24.2247 9.06376L24.1878 9.08222L24.1509 9.10991L24.1139 9.12838L24.077 9.15607L24.0401 9.17453L24.0124 9.20222L23.9755 9.22991L23.9385 9.25761L23.9016 9.27607L23.8647 9.30376L23.8278 9.34068V9.32222Z" fill="#E01D3B"/>
</svg>
