<svg width="80" height="20" viewBox="0 0 80 20" fill="none" xmlns="http://www.w3.org/2000/svg">
<path fill-rule="evenodd" clip-rule="evenodd" d="M75.5875 9.90229H76.7772V7.75971H78.3495V9.90164H79.7682V11.0778H78.3495V14.8907C78.3495 15.0578 78.3565 15.1965 78.3701 15.3217C78.3843 15.4404 78.4191 15.5449 78.4675 15.6281C78.5165 15.712 78.5927 15.7746 78.6972 15.8152C78.8011 15.8572 78.934 15.8791 79.1146 15.8791C79.2262 15.8791 79.3372 15.8791 79.4482 15.872C79.5598 15.8642 79.6714 15.8507 79.7824 15.823V17.0404C79.6082 17.0617 79.4346 17.0752 79.2746 17.0959C79.1075 17.1172 78.9404 17.1236 78.7669 17.1236C78.3494 17.1236 78.0159 17.0823 77.7649 17.0055C77.5146 16.9294 77.3127 16.8107 77.1733 16.6572C77.0275 16.5042 76.9372 16.3165 76.8817 16.0875C76.8327 15.8572 76.7978 15.5933 76.7907 15.3004V11.092H75.6011V9.90229H75.5875ZM71.5243 15.9901C71.872 15.9901 72.1785 15.9126 72.4359 15.7675C72.6933 15.621 72.9017 15.4268 73.0688 15.1894C73.2353 14.9533 73.354 14.6817 73.4378 14.3823C73.514 14.0836 73.5559 13.7778 73.5559 13.4642C73.5559 13.1584 73.514 12.8591 73.4378 12.5526C73.3611 12.2468 73.2353 11.9829 73.0688 11.7455C72.9017 11.5094 72.6933 11.3216 72.4359 11.1758C72.1785 11.0294 71.872 10.9533 71.5243 10.9533C71.1765 10.9533 70.8701 11.0294 70.6127 11.1758C70.3559 11.3216 70.1469 11.5165 69.9804 11.7455C69.8133 11.9829 69.6946 12.2468 69.6107 12.552C69.5346 12.8591 69.4933 13.1584 69.4933 13.4642C69.4933 13.7778 69.5346 14.0836 69.6107 14.3823C69.6875 14.6817 69.8133 14.9533 69.9804 15.1888C70.1469 15.4268 70.3559 15.621 70.6127 15.7675C70.8701 15.9204 71.1765 15.9901 71.5243 15.9901ZM71.5243 17.2352C70.954 17.2352 70.4456 17.1378 70.0011 16.9501C69.5553 16.7623 69.1798 16.4978 68.8669 16.1707C68.5604 15.8365 68.3236 15.4404 68.1643 14.981C68.0043 14.5217 67.9204 14.0133 67.9204 13.4642C67.9204 12.9223 68.0043 12.4204 68.1643 11.961C68.3236 11.5023 68.5604 11.1055 68.8669 10.772C69.1733 10.4378 69.5553 10.181 70.0011 9.99325C70.4456 9.80551 70.954 9.70745 71.5243 9.70745C72.0946 9.70745 72.603 9.80551 73.0475 9.99325C73.4933 10.1804 73.8688 10.4449 74.1817 10.772C74.4882 11.1055 74.7249 11.5023 74.8843 11.9616C75.0443 12.4197 75.1282 12.9223 75.1282 13.4642C75.1282 14.0139 75.0443 14.5217 74.8843 14.9804C74.7243 15.4404 74.4882 15.8365 74.1817 16.1707C73.8759 16.5042 73.4933 16.7623 73.0475 16.9501C72.603 17.1372 72.0946 17.2352 71.5243 17.2352ZM65.1307 17.0404H66.7036V7.18229H65.1307V17.0404ZM62.1533 17.0404H63.7256V9.90229H62.1533V17.0404ZM62.1533 8.67132H63.7256V7.18229H62.1533V8.67132ZM59.3772 13.4778C59.3772 13.1584 59.3359 12.8455 59.252 12.5391C59.1688 12.2326 59.043 11.9687 58.8765 11.732C58.7094 11.4958 58.5011 11.3081 58.2572 11.1687C58.0069 11.0294 57.7217 10.9533 57.4017 10.9533C56.7404 10.9533 56.2398 11.1823 55.9056 11.6416C55.572 12.101 55.4049 12.7126 55.4049 13.4784C55.4049 13.8397 55.4462 14.1739 55.5372 14.4804C55.6275 14.7862 55.7527 15.0501 55.9333 15.2733C56.1075 15.4959 56.3159 15.6694 56.5598 15.7952C56.803 15.9275 57.0882 15.9901 57.4082 15.9901C57.7701 15.9901 58.0695 15.9126 58.3191 15.7675C58.5701 15.621 58.772 15.4268 58.932 15.1965C59.092 14.9604 59.2101 14.6959 59.2798 14.3965C59.3424 14.0978 59.3772 13.7907 59.3772 13.4778ZM53.8804 9.90229H55.3701V10.8694H55.3978C55.6204 10.452 55.9262 10.1597 56.323 9.97906C56.7198 9.79777 57.1436 9.70745 57.6101 9.70745C58.174 9.70745 58.6611 9.80551 59.0778 10.0068C59.4959 10.2016 59.8436 10.4733 60.1211 10.821C60.3998 11.1687 60.6011 11.572 60.7404 12.0313C60.8798 12.4907 60.9501 12.9842 60.9501 13.5062C60.9501 13.9862 60.8869 14.4526 60.7617 14.8978C60.6365 15.3494 60.4482 15.7468 60.1978 16.0946C59.9475 16.4423 59.6275 16.7139 59.2378 16.9223C58.8488 17.1307 58.3965 17.2352 57.8675 17.2352C57.6378 17.2352 57.4082 17.2146 57.1791 17.1726C56.9488 17.1307 56.7269 17.0617 56.5178 16.9707C56.3088 16.8804 56.1075 16.7623 55.9333 16.6159C55.7527 16.4701 55.6062 16.303 55.4811 16.1152H55.4533V19.6765H53.8804V9.90229ZM48.5862 9.90229H49.7759V7.75971H51.3488V9.90164H52.7682V11.0778H51.3488V14.8907C51.3488 15.0578 51.3553 15.1965 51.3694 15.3217C51.383 15.4404 51.4178 15.5449 51.4669 15.6281C51.5153 15.712 51.592 15.7746 51.6965 15.8152C51.8011 15.8572 51.9333 15.8791 52.114 15.8791C52.2249 15.8791 52.3365 15.8791 52.4482 15.872C52.5591 15.8642 52.6707 15.8507 52.7817 15.823V17.0404C52.6082 17.0617 52.434 17.0752 52.274 17.0959C52.1069 17.1172 51.9404 17.1236 51.7662 17.1236C51.3488 17.1236 51.0146 17.0823 50.7636 17.0055C50.514 16.9294 50.312 16.8107 50.1727 16.6572C50.0269 16.5042 49.9359 16.3165 49.8804 16.0875C49.832 15.8572 49.7972 15.5933 49.7901 15.3004V11.092H48.6004V9.90229H48.5862ZM43.3965 14.752C43.4456 15.2101 43.6191 15.5307 43.9185 15.7191C44.2249 15.8997 44.5862 15.9965 45.0101 15.9965C45.1565 15.9965 45.3236 15.983 45.5114 15.9623C45.6998 15.941 45.8804 15.8926 46.0404 15.8301C46.2075 15.7675 46.3391 15.6688 46.4507 15.5449C46.5553 15.4197 46.6036 15.2597 46.5965 15.0578C46.5901 14.8559 46.514 14.6888 46.3746 14.5642C46.2353 14.432 46.0611 14.3339 45.8449 14.2507C45.6294 14.1733 45.3862 14.1049 45.1082 14.0488C44.8294 13.9933 44.552 13.9307 44.2662 13.8675C43.974 13.8055 43.6888 13.7217 43.4178 13.6313C43.1462 13.541 42.9024 13.4159 42.6869 13.2559C42.4714 13.1029 42.2972 12.9004 42.172 12.6578C42.0398 12.4139 41.9772 12.1152 41.9772 11.7526C41.9772 11.3636 42.0746 11.0429 42.263 10.7784C42.4507 10.5139 42.694 10.3062 42.9791 10.1462C43.2714 9.98616 43.5914 9.87454 43.9462 9.80551C44.3011 9.74229 44.6417 9.70745 44.9617 9.70745C45.3307 9.70745 45.6849 9.74938 46.0191 9.82616C46.3533 9.90229 46.6591 10.0274 46.9307 10.2087C47.2024 10.3823 47.4249 10.612 47.6056 10.89C47.7862 11.1687 47.8978 11.5094 47.9462 11.9055H46.3043C46.2282 11.53 46.0611 11.2726 45.7894 11.1481C45.5185 11.0158 45.2056 10.9533 44.8572 10.9533C44.7462 10.9533 44.614 10.9597 44.4611 10.981C44.3082 11.0016 44.1688 11.0365 44.0295 11.0842C43.8978 11.1339 43.7862 11.21 43.6888 11.3081C43.5985 11.4049 43.5494 11.53 43.5494 11.69C43.5494 11.8849 43.6191 12.0384 43.7514 12.1565C43.883 12.2752 44.0578 12.372 44.2733 12.4558C44.4888 12.532 44.7327 12.6023 45.0101 12.6578C45.2888 12.7126 45.574 12.7758 45.8669 12.8384C46.1514 12.9004 46.4301 12.9842 46.7082 13.0745C46.9862 13.1649 47.2301 13.2907 47.4456 13.4507C47.6611 13.6107 47.8353 13.8055 47.9669 14.0417C48.0998 14.2784 48.1695 14.5772 48.1695 14.9255C48.1695 15.3494 48.072 15.7042 47.8772 16.003C47.6824 16.2959 47.4314 16.5397 47.1256 16.7204C46.8191 16.901 46.4714 17.0404 46.0959 17.1236C45.7204 17.2075 45.3443 17.2494 44.9759 17.2494C44.5236 17.2494 44.1062 17.201 43.723 17.0959C43.3411 16.9913 43.0069 16.8378 42.7282 16.6365C42.4507 16.4281 42.2275 16.1707 42.0675 15.8642C41.9075 15.5591 41.8243 15.1894 41.8107 14.7655H43.3965V14.752ZM40.7178 17.0404H39.174V16.0449H39.1456C38.9507 16.4062 38.6656 16.692 38.283 16.9075C37.9004 17.123 37.5107 17.2346 37.114 17.2346C36.1753 17.2346 35.4933 17.0049 35.0759 16.5391C34.6585 16.0726 34.4494 15.3701 34.4494 14.4313V9.90164H36.0217V14.2778C36.0217 14.9036 36.1404 15.3488 36.3836 15.6068C36.6204 15.8636 36.9611 15.9959 37.3927 15.9959C37.7262 15.9959 37.9978 15.9475 38.2204 15.843C38.443 15.7391 38.6243 15.6068 38.7559 15.4326C38.8953 15.2649 38.9927 15.0572 39.0553 14.8197C39.1178 14.5842 39.1456 14.3262 39.1456 14.0481V9.90938H40.7178V17.0404ZM29.3082 9.90229H30.783V11.2804H30.8114C30.8598 11.0849 30.9501 10.8971 31.0824 10.7165C31.2146 10.5352 31.3746 10.3616 31.5624 10.2152C31.7501 10.0623 31.9591 9.94358 32.1882 9.8468C32.4178 9.75583 32.6546 9.70745 32.8914 9.70745C33.072 9.70745 33.2043 9.7139 33.274 9.72164C33.343 9.72809 33.4127 9.74229 33.4895 9.74938V11.2655C33.3785 11.2449 33.2669 11.2313 33.1488 11.2171C33.0307 11.2036 32.9191 11.1965 32.8075 11.1965C32.5436 11.1965 32.2933 11.252 32.0565 11.3565C31.8198 11.461 31.6178 11.621 31.4443 11.8229C31.2701 12.0313 31.1307 12.281 31.0269 12.5874C30.9224 12.8939 30.8733 13.2417 30.8733 13.6384V17.0339H29.3011V9.90229H29.3082ZM21.6695 7.18229H29.6488V8.67132H26.5114V17.0404H24.7862V8.67067H21.6624V7.18164L21.6695 7.18229Z" fill="#191919"/>
<path fill-rule="evenodd" clip-rule="evenodd" d="M19.8326 7.18227H12.6249L10.3984 0.322266L8.16551 7.18227L0.957764 7.17452L6.79518 11.4184L4.56163 18.2713L10.3984 14.0345L16.2287 18.2713L14.0023 11.4184L19.8326 7.18227Z" fill="#00B67A"/>
<path fill-rule="evenodd" clip-rule="evenodd" d="M14.5037 12.9715L14.003 11.4199L10.3992 14.0354L14.5037 12.9715Z" fill="#005128"/>
</svg>
