<svg width="56" height="24" viewBox="0 0 56 24" fill="none" xmlns="http://www.w3.org/2000/svg">
<path d="M27.731 3.43195L24.058 20.6109H19.6142L23.288 3.43195H27.731ZM46.4284 14.5256L48.7702 8.07344L50.1143 14.5256H46.4284ZM51.3887 20.6109H55.5L51.9095 3.43195H48.1205C47.2655 3.43195 46.5427 3.92695 46.2265 4.69094L39.556 20.6109H44.2233L45.1497 18.0439H50.8508L51.3887 20.6109ZM39.788 15.0034C39.807 10.4677 33.5198 10.2176 33.561 8.19117C33.5765 7.57758 34.1634 6.92016 35.4482 6.75516C36.0833 6.67094 37.839 6.60391 39.8293 7.52258L40.6087 3.87711C39.2793 3.38039 37.8725 3.12344 36.4528 3.11914C32.058 3.11914 28.9685 5.45234 28.9427 8.79617C28.9135 11.2712 31.1505 12.6479 32.8323 13.4712C34.5648 14.3151 35.1466 14.8556 35.1397 15.6076C35.1259 16.7591 33.7535 17.2696 32.4808 17.2877C30.2447 17.3246 28.947 16.6844 27.9141 16.2031L27.1097 19.9689C28.1478 20.4459 30.0642 20.8601 32.0485 20.8807C36.7209 20.8807 39.7743 18.5741 39.788 15.0026V15.0034ZM21.382 3.43109L14.1812 20.6091H9.48305L5.93898 6.90039C5.725 6.05734 5.5368 5.74711 4.88453 5.38961C3.81547 4.80867 2.04945 4.26641 0.5 3.92867L0.603984 3.43109H8.16648C9.1307 3.43109 9.99695 4.07219 10.217 5.18164L12.0895 15.1212L16.713 3.43109H21.382Z" fill="#1A1F71"/>
</svg>
