<svg width="111" height="16" viewBox="0 0 111 16" fill="none" xmlns="http://www.w3.org/2000/svg">
<path d="M18.7549 0V1.496H23.2889V15.768H25.4349V1.496H29.9179V0H18.7549Z" fill="white"/>
<path d="M28.54 15.7674V4.59938H30.483V6.06438C30.728 5.70538 31.623 4.41038 33.209 4.41038C33.684 4.40038 34.147 4.54938 34.526 4.83538V6.57738C33.992 6.17238 33.341 5.95438 32.671 5.95238C30.728 5.95238 30.483 7.47038 30.483 8.07438V15.7674H28.54ZM43.193 15.7674V14.4744C42.205 15.4364 40.885 15.9794 39.507 15.9944C38.739 16.0364 37.98 15.8064 37.363 15.3464C36.223 14.4754 36.133 13.2024 36.133 11.9284V4.59938H38.033V11.4144C38.033 12.9544 38.189 14.7444 40.335 14.7444C41.07 14.7444 42.055 14.4544 42.546 13.9364C43.103 13.3534 43.193 12.8624 43.193 12.1464V4.60138H45.093V15.7674H43.193ZM52.732 7.79638V7.47938C52.732 6.71938 52.352 5.53438 50.632 5.53438C49.135 5.53438 48.487 6.38338 48.487 7.21038C48.487 8.28338 49.627 8.73038 50.654 9.02938L51.816 9.36438C53.692 9.90038 54.766 10.8404 54.766 12.6274C54.766 14.3014 53.714 15.9994 50.543 15.9994C47.416 15.9994 46.411 14.4594 46.411 12.6034V12.3084H48.331V12.5974C48.331 13.5604 48.755 14.7444 50.721 14.7444C52.374 14.7444 52.887 13.8944 52.887 12.9994C52.887 11.6144 51.794 11.2814 50.765 10.9684L49.336 10.5434C48.644 10.3414 46.722 9.78338 46.722 7.68338C46.722 6.07538 47.66 4.35638 50.698 4.35638C52.643 4.35638 54.539 5.16438 54.539 7.66038V7.79638H52.732ZM74.436 4.59938L71.914 13.7824L69.368 4.59938H67.603L64.745 13.7804L62.33 4.59938H58.288V1.82938L56.343 2.16538L56.297 12.4414C56.297 14.2284 56.367 14.8984 57.147 15.4734C57.661 15.8164 58.267 15.9894 58.883 15.9684C59.6 15.9624 60.31 15.8344 60.984 15.5884V14.2944C60.58 14.4594 60.147 14.5514 59.709 14.5634C58.415 14.5634 58.256 13.6694 58.256 12.4844L58.282 5.73938H60.628L63.535 15.7664H65.569L68.272 7.18638L70.752 15.7664H72.808L76.112 4.59538L74.437 4.59838L74.436 4.59938ZM83.323 11.7564C83.323 12.5834 83.255 13.6324 82.294 14.2564C81.779 14.5764 81.18 14.7404 80.574 14.7264C79.278 14.7264 78.544 13.9684 78.544 12.7164C78.509 11.9684 78.9 11.2644 79.554 10.8964C80.045 10.6064 81.027 10.3364 83.329 10.0704L83.323 11.7564ZM85.205 14.1504V8.03938C85.205 7.19138 85.116 6.23438 84.691 5.62838C84.171 4.89038 83.127 4.35538 81.341 4.35538C79.173 4.35538 76.917 5.15938 76.917 7.81538V8.16138H78.732V8.00538C78.732 5.70538 80.519 5.61538 81.213 5.61538C82.709 5.61538 83.335 6.34238 83.335 7.84038V9.02638C79.737 9.36138 78.688 9.72038 77.929 10.1444C77.409 10.4344 76.514 11.2374 76.514 12.7584C76.514 14.8984 77.877 15.9924 80.022 15.9924C81.282 16.0104 82.489 15.4814 83.329 14.5414V14.8504C83.329 15.5194 83.507 15.7664 84.243 15.7664H85.719V15.5114C85.316 15.4444 85.205 14.9974 85.205 14.1494V14.1504ZM91.884 15.7674H89.851L86.165 4.60038H88.266L91.058 13.7604L94.201 4.60038H95.944L91.884 15.7674ZM101.2 5.60638C103.657 5.60638 103.723 8.28738 103.746 8.97838H98.272C98.407 6.74538 99.593 5.60638 101.2 5.60638ZM105.644 10.1384V9.58138C105.644 6.00638 104.037 4.35338 101.177 4.35338C97.625 4.35338 96.174 6.85838 96.174 10.4974C96.174 13.7124 97.536 15.9914 101.044 15.9914C104.059 15.9914 105.599 14.2514 105.599 12.3524H103.702C103.568 14.4534 101.847 14.7444 101.133 14.7444C98.25 14.7444 98.205 11.6364 98.205 10.2524V10.1384H105.644ZM0 0.777379V12.7344C0 12.7344 3.37 10.7964 6.05 8.59238C8.73 6.38938 9.949 4.54938 9.949 4.54938C7.209 2.11138 3.667 0.769379 0 0.777379Z" fill="white"/>
<path d="M4.99512 0.00976562C10.1151 1.63777 14.1251 5.64977 15.7531 10.7678V0.00976562H4.99512Z" fill="white"/>
<path d="M14.9852 15.7685H3.03223C3.03223 15.7685 4.97023 12.3995 7.17323 9.7195C9.37823 7.0395 11.2162 5.8215 11.2162 5.8215C13.6532 8.5615 14.9942 12.1015 14.9862 15.7685M109.19 7.6905C108.336 7.6845 107.65 6.9885 107.656 6.1355C107.661 5.2825 108.357 4.5955 109.21 4.6005H109.226C110.076 4.6115 110.754 5.3065 110.746 6.1555C110.739 7.0085 110.043 7.6965 109.19 7.6905ZM109.218 4.4375C108.275 4.4355 107.508 5.1985 107.505 6.1415C107.503 7.0855 108.266 7.8515 109.21 7.8535H109.25C110.186 7.8395 110.935 7.0695 110.922 6.1305C110.915 5.1955 110.155 4.4405 109.218 4.4375Z" fill="white"/>
<path d="M109.102 6.06391H108.885V5.35991H109.189C109.524 5.35991 109.629 5.46091 109.629 5.70091C109.629 6.00791 109.461 6.06391 109.102 6.06391ZM110.001 6.92791L109.901 6.54091C109.881 6.36591 109.755 6.22191 109.584 6.18091C109.828 6.12691 109.994 5.90091 109.973 5.65291C109.973 5.27891 109.758 5.12891 109.353 5.12891H108.533V7.16691H108.879V6.29491H109.033C109.431 6.29491 109.498 6.35191 109.575 6.65991L109.665 7.01491C109.677 7.07291 109.705 7.12491 109.747 7.16691H110.117C110.063 7.09491 110.024 7.01391 110.001 6.92791Z" fill="white"/>
</svg>
