<svg width="56" height="24" viewBox="0 0 56 24" fill="none" xmlns="http://www.w3.org/2000/svg">
<path d="M10.5502 3.61964C9.90477 4.38447 8.87354 4.98517 7.84316 4.89923C7.7134 3.86628 8.21956 2.77059 8.80909 2.09513C9.45361 1.3114 10.5819 0.752812 11.4955 0.708984C11.6029 1.78319 11.1835 2.8359 10.5502 3.61964ZM11.4843 5.10376C9.99243 5.01696 8.71284 5.95195 8.00386 5.95195C7.28286 5.95195 6.19835 5.14587 5.01672 5.16649C3.48105 5.1897 2.05193 6.05937 1.26647 7.44466C-0.343974 10.217 0.84968 14.3204 2.40598 16.5771C3.1691 17.6943 4.08346 18.918 5.2857 18.8759C6.42436 18.8338 6.87552 18.1343 8.2505 18.1343C9.63665 18.1343 10.0345 18.8759 11.2376 18.8544C12.4837 18.8338 13.2683 17.7381 14.0314 16.6192C14.9011 15.3516 15.2552 14.1159 15.2766 14.0532C15.2552 14.0299 12.8704 13.1182 12.8489 10.3682C12.8283 8.0677 14.7292 6.97201 14.8152 6.9067C13.7401 5.31774 12.0635 5.14587 11.4843 5.10376ZM20.1123 1.98771V18.7367H22.711V13.0107H26.31C29.597 13.0107 31.907 10.7541 31.907 7.48849C31.907 4.22205 29.64 1.98771 26.3959 1.98771H20.1123ZM22.711 4.17995H25.7076C27.9643 4.17995 29.2533 5.38219 29.2533 7.49966C29.2533 9.61455 27.9643 10.8288 25.6981 10.8288H22.711V4.17995ZM36.6558 18.8647C38.2886 18.8647 39.8037 18.038 40.492 16.7283H40.5453V18.7367H42.9515V10.3991C42.9515 7.98176 41.018 6.4246 38.042 6.4246C35.2809 6.4246 33.2399 8.00325 33.1643 10.1749H35.506C35.6994 9.1419 36.6558 8.46558 37.9655 8.46558C39.5562 8.46558 40.4482 9.20721 40.4482 10.571V11.4948L37.2041 11.6882C34.1852 11.8712 32.5515 13.1061 32.5515 15.2554C32.5515 17.4244 34.2385 18.8647 36.6558 18.8647ZM37.3554 16.8779C35.9692 16.8779 35.0875 16.2119 35.0875 15.1909C35.0875 14.1391 35.9348 13.5255 37.5582 13.4293L40.4482 13.2462V14.1906C40.4482 15.759 39.1162 16.8779 37.3554 16.8779ZM46.1638 23.2913C48.6989 23.2913 49.8926 22.3236 50.9333 19.3924L55.4999 6.5853H52.8565L49.7955 16.48H49.7413L46.6794 6.5853H43.9604L48.3664 18.7788L48.1292 19.5204C47.7322 20.7785 47.0876 21.2606 45.9378 21.2606C45.735 21.2606 45.3363 21.2391 45.1764 21.2185V23.2268C45.3259 23.2707 45.9705 23.2913 46.1638 23.2913Z" fill="black"/>
</svg>
