<svg width="56" height="24" viewBox="0 0 56 24" fill="none" xmlns="http://www.w3.org/2000/svg">
<path d="M18.1497 23.9473V22.3545C18.1497 21.7453 17.7785 21.3463 17.1414 21.3463C16.8229 21.3463 16.4765 21.4514 16.2383 21.7978C16.0528 21.5071 15.7868 21.3463 15.3878 21.3463C15.1218 21.3463 14.8559 21.4267 14.6456 21.7174V21.3989H14.0889V23.9473H14.6456V22.5401C14.6456 22.0885 14.8837 21.8751 15.2548 21.8751C15.626 21.8751 15.8115 22.1133 15.8115 22.5401V23.9473H16.3682V22.5401C16.3682 22.0885 16.6342 21.8751 16.9775 21.8751C17.3486 21.8751 17.5342 22.1133 17.5342 22.5401V23.9473H18.1497ZM26.4073 21.3989H25.5042V20.6288H24.9475V21.3989H24.4434V21.903H24.9475V23.072C24.9475 23.6566 25.1857 23.9999 25.8228 23.9999C26.0609 23.9999 26.3269 23.9195 26.5125 23.8143L26.3516 23.3349C26.1908 23.4401 26.0053 23.4679 25.8723 23.4679C25.6063 23.4679 25.5011 23.3071 25.5011 23.0442V21.903H26.4042V21.3989H26.4073ZM31.1331 21.3432C30.8145 21.3432 30.6011 21.504 30.4681 21.7143V21.3958H29.9114V23.9442H30.4681V22.5092C30.4681 22.0855 30.6537 21.8442 31.0001 21.8442C31.1052 21.8442 31.2382 21.8721 31.3465 21.8968L31.5073 21.3648C31.3959 21.3432 31.2382 21.3432 31.1331 21.3432ZM23.9919 21.6092C23.7259 21.4236 23.3548 21.3432 22.9558 21.3432C22.3187 21.3432 21.895 21.6617 21.895 22.1659C21.895 22.5896 22.2135 22.8308 22.7702 22.9081L23.0362 22.936C23.3269 22.9885 23.4878 23.069 23.4878 23.2019C23.4878 23.3875 23.2744 23.5205 22.9032 23.5205C22.5321 23.5205 22.2383 23.3875 22.0527 23.2545L21.7867 23.6782C22.0775 23.8916 22.4764 23.9968 22.8754 23.9968C23.6177 23.9968 24.0445 23.6504 24.0445 23.1741C24.0445 22.7226 23.6981 22.4844 23.1692 22.404L22.9032 22.3762C22.6651 22.3483 22.4795 22.2958 22.4795 22.138C22.4795 21.9525 22.6651 21.8473 22.9589 21.8473C23.2774 21.8473 23.596 21.9803 23.7568 22.0607L23.9919 21.6092ZM38.8031 21.3432C38.4845 21.3432 38.2711 21.504 38.1381 21.7143V21.3958H37.5814V23.9442H38.1381V22.5092C38.1381 22.0855 38.3237 21.8442 38.6701 21.8442C38.7753 21.8442 38.9082 21.8721 39.0165 21.8968L39.1773 21.371C39.0691 21.3432 38.9113 21.3432 38.8031 21.3432ZM31.6897 22.6731C31.6897 23.4432 32.2217 23.9999 33.0444 23.9999C33.4155 23.9999 33.6815 23.9195 33.9475 23.7092L33.6815 23.2576C33.4681 23.4184 33.2578 23.4958 33.0165 23.4958C32.565 23.4958 32.2464 23.1772 32.2464 22.6731C32.2464 22.1937 32.565 21.8751 33.0165 21.8504C33.2547 21.8504 33.4681 21.9308 33.6815 22.0885L33.9475 21.637C33.6815 21.4236 33.4155 21.3463 33.0444 21.3463C32.2217 21.3432 31.6897 21.903 31.6897 22.6731ZM36.8392 22.6731V21.3989H36.2825V21.7174C36.0969 21.4793 35.8309 21.3463 35.4846 21.3463C34.767 21.3463 34.2103 21.903 34.2103 22.6731C34.2103 23.4432 34.767 23.9999 35.4846 23.9999C35.8557 23.9999 36.1217 23.8669 36.2825 23.6287V23.9473H36.8392V22.6731ZM34.7949 22.6731C34.7949 22.2215 35.0856 21.8504 35.565 21.8504C36.0165 21.8504 36.3351 22.1968 36.3351 22.6731C36.3351 23.1246 36.0165 23.4958 35.565 23.4958C35.0887 23.4679 34.7949 23.1215 34.7949 22.6731ZM28.1331 21.3432C27.3908 21.3432 26.8589 21.8751 26.8589 22.67C26.8589 23.4679 27.3908 23.9968 28.1609 23.9968C28.532 23.9968 28.9032 23.8916 29.197 23.6504L28.931 23.2514C28.7176 23.4122 28.4516 23.5174 28.1887 23.5174C27.8424 23.5174 27.4991 23.3566 27.4186 22.9081H29.3021C29.3021 22.8277 29.3021 22.7751 29.3021 22.6947C29.3269 21.8751 28.8475 21.3432 28.1331 21.3432ZM28.1331 21.8226C28.4795 21.8226 28.7176 22.036 28.7702 22.4318H27.4434C27.496 22.0885 27.7341 21.8226 28.1331 21.8226ZM41.9639 22.6731V20.3906H41.4072V21.7174C41.2216 21.4793 40.9556 21.3463 40.6093 21.3463C39.8917 21.3463 39.335 21.903 39.335 22.6731C39.335 23.4432 39.8917 23.9999 40.6093 23.9999C40.9804 23.9999 41.2464 23.8669 41.4072 23.6287V23.9473H41.9639V22.6731ZM39.9196 22.6731C39.9196 22.2215 40.2103 21.8504 40.6897 21.8504C41.1412 21.8504 41.4598 22.1968 41.4598 22.6731C41.4598 23.1246 41.1412 23.4958 40.6897 23.4958C40.2103 23.4679 39.9196 23.1215 39.9196 22.6731ZM21.2826 22.6731V21.3989H20.7259V21.7174C20.5404 21.4793 20.2744 21.3463 19.928 21.3463C19.2105 21.3463 18.6538 21.903 18.6538 22.6731C18.6538 23.4432 19.2105 23.9999 19.928 23.9999C20.2991 23.9999 20.5651 23.8669 20.7259 23.6287V23.9473H21.2826V22.6731ZM19.2136 22.6731C19.2136 22.2215 19.5043 21.8504 19.9837 21.8504C20.4352 21.8504 20.7538 22.1968 20.7538 22.6731C20.7538 23.1246 20.4352 23.4958 19.9837 23.4958C19.5043 23.4679 19.2136 23.1215 19.2136 22.6731Z" fill="black"/>
<path d="M32.169 2.04492H23.8062V17.0695H32.169V2.04492Z" fill="#FF5A00"/>
<path d="M24.3629 9.55662C24.3629 6.50407 25.798 3.79481 28 2.04431C26.3794 0.770096 24.3351 0 22.1052 0C16.8228 0 12.5486 4.27419 12.5486 9.55662C12.5486 14.839 16.8228 19.1132 22.1052 19.1132C24.3351 19.1132 26.3794 18.3431 28 17.0689C25.7949 15.3432 24.3629 12.6092 24.3629 9.55662Z" fill="#EB001B"/>
<path d="M43.4514 9.55662C43.4514 14.839 39.1772 19.1132 33.8948 19.1132C31.6649 19.1132 29.6206 18.3431 28 17.0689C30.2299 15.3153 31.6371 12.6092 31.6371 9.55662C31.6371 6.50407 30.202 3.79481 28 2.04431C29.6175 0.770096 31.6618 0 33.8917 0C39.1772 0 43.4514 4.30203 43.4514 9.55662Z" fill="#F79E1B"/>
</svg>
