<svg width="56" height="24" viewBox="0 0 56 24" fill="none" xmlns="http://www.w3.org/2000/svg">
<path d="M23.5173 23.1869L23.942 20.5441L22.996 20.5227H18.479L21.6175 1.0267C21.6379 0.902117 21.7469 0.811602 21.8735 0.814522H29.488C32.0156 0.814522 33.7601 1.32971 34.6714 2.34678C35.0987 2.82401 35.3712 3.32168 35.5022 3.87093C35.6404 4.44679 35.6424 5.13554 35.5078 5.97386L35.4983 6.0355V6.57274L35.924 6.80925C36.2507 6.97081 36.5433 7.19045 36.7889 7.45518C37.1545 7.86428 37.3907 8.38206 37.4906 8.99685C37.5938 9.62915 37.5588 10.3815 37.3907 11.2334C37.1961 12.2122 36.8804 13.0668 36.4557 13.7656C36.0781 14.3933 35.5733 14.9351 34.9741 15.3562C34.3677 15.7679 33.6919 16.0661 32.9792 16.2377C32.2437 16.4262 31.4044 16.5203 30.485 16.5203H29.8923C29.4676 16.5203 29.0569 16.6698 28.7338 16.9365C28.411 17.208 28.1965 17.5828 28.1294 17.9935L28.0849 18.2326L27.3355 22.8887L27.3011 23.0594C27.292 23.1129 27.2764 23.1408 27.2541 23.1583C27.232 23.1759 27.2044 23.1859 27.1755 23.1859H23.5173V23.1869Z" fill="#253B80"/>
<path d="M36.3294 6.09766C36.3073 6.23975 36.2804 6.38575 36.2509 6.53531C35.2474 11.5856 31.8117 13.331 27.4242 13.331H25.1893C24.653 13.331 24.2007 13.7122 24.1167 14.231L22.9738 21.3392L22.65 23.3532C22.5971 23.6967 22.8657 24.005 23.2129 23.9994H27.1757C27.6458 23.9994 28.0435 23.6672 28.1175 23.213L28.1561 23.0155L28.902 18.3778L28.95 18.1228C29.024 17.668 29.4236 17.3338 29.8918 17.3338H30.4852C34.3244 17.3338 37.3292 15.8067 38.2078 11.3881C38.5744 9.54175 38.3852 8.00008 37.4139 6.9165C37.1047 6.5804 36.7375 6.30269 36.3294 6.09766Z" fill="#179BD7"/>
<path d="M35.2789 5.68698C34.9577 5.59647 34.6316 5.52542 34.3024 5.47448C33.6506 5.37586 32.9913 5.32946 32.3324 5.33433H26.3643C25.8955 5.33433 25.4968 5.66849 25.4228 6.12366L24.1537 14.0023L24.1167 14.231C24.1998 13.7133 24.6539 13.3301 25.1902 13.3311H27.4242C31.8117 13.3311 35.2474 11.5847 36.2508 6.53535C36.2813 6.38579 36.3063 6.2398 36.3294 6.0977C35.9942 5.92511 35.6426 5.78755 35.2789 5.68698Z" fill="#222D65"/>
<path d="M25.4208 6.12288C25.4928 5.66771 25.8915 5.33258 26.3622 5.33452H32.3287C33.0357 5.33452 33.6962 5.37864 34.298 5.47467C34.7048 5.53761 35.1065 5.6317 35.5003 5.7553C35.7959 5.85231 36.071 5.96585 36.3247 6.09692C36.6248 4.23083 36.3227 2.95876 35.293 1.80867C34.1579 0.54179 32.1088 0 29.4861 0H21.8722C21.3369 0 20.8804 0.380875 20.7984 0.901578L17.6261 20.5922C17.5651 20.9867 17.8737 21.34 18.2721 21.3345H22.9714L24.1519 13.9983L25.4208 6.12288Z" fill="#253B80"/>
</svg>
