<svg width="56" height="24" viewBox="0 0 56 24" fill="none" xmlns="http://www.w3.org/2000/svg">
<path d="M16.3301 0H25.9064C27.2432 0 28.0746 1.08958 27.7628 2.43079L23.3043 21.5727C22.9897 22.9092 21.6513 23.9998 20.3136 23.9998H10.7382C9.40327 23.9998 8.56998 22.9092 8.88182 21.5727L13.3422 2.43079C13.654 1.08958 14.9917 0 16.3301 0Z" fill="#E21836"/>
<path d="M25.1095 0H36.1221C37.4586 0 36.8559 1.08958 36.5415 2.43079L32.0837 21.5727C31.771 22.9092 31.8685 23.9998 30.5292 23.9998H19.5167C18.1773 23.9998 17.3485 22.9092 17.6631 21.5727L22.1206 2.43079C22.4372 1.08958 23.7721 0 25.1095 0Z" fill="#00447C"/>
<path d="M35.6853 0H45.2616C46.6002 0 47.4316 1.08958 47.1172 2.43079L42.6595 21.5727C42.3448 22.9092 41.0055 23.9998 39.6671 23.9998H30.0952C28.7559 23.9998 27.9251 22.9092 28.2388 21.5727L32.6973 2.43079C33.0091 1.08958 34.3459 0 35.6853 0Z" fill="#007B84"/>
<path d="M18.8312 6.13536C17.8464 6.1454 17.5556 6.13536 17.4627 6.11342C17.4269 6.28311 16.7624 9.34855 16.7605 9.35112C16.6175 9.97131 16.5134 10.4134 16.1597 10.6989C15.959 10.8648 15.7246 10.9449 15.4529 10.9449C15.0162 10.9449 14.7618 10.728 14.7191 10.3168L14.7109 10.1755C14.7109 10.1755 14.844 9.34482 14.844 9.34015C14.844 9.34015 15.5414 6.54664 15.6663 6.17738C15.6728 6.15637 15.6747 6.1454 15.6763 6.13536C14.3188 6.14726 14.0781 6.13536 14.0616 6.11342C14.0525 6.14353 14.0188 6.31672 14.0188 6.31672L13.3067 9.46526L13.2455 9.73229L13.1272 10.6057C13.1272 10.8648 13.1781 11.0763 13.2794 11.2551C13.6038 11.8221 14.5293 11.907 15.0529 11.907C15.7274 11.907 16.3602 11.7637 16.7878 11.502C17.5301 11.0635 17.7243 10.3779 17.8975 9.7687L17.9778 9.45616C17.9778 9.45616 18.6963 6.55481 18.8183 6.17738C18.823 6.15637 18.8249 6.1454 18.8312 6.13536ZM21.2757 8.47591C21.1025 8.47591 20.7859 8.51792 20.5016 8.65727C20.3985 8.71026 20.3009 8.77141 20.198 8.83233L20.2909 8.49692L20.24 8.44043C19.6371 8.56251 19.5022 8.57884 18.9452 8.65727L18.8986 8.68832C18.8339 9.22447 18.7765 9.62758 18.5368 10.6814C18.4455 11.0699 18.3507 11.462 18.2557 11.8495L18.2814 11.8987C18.8521 11.8686 19.0253 11.8686 19.5213 11.8768L19.5615 11.8331C19.6245 11.5103 19.6326 11.4347 19.7722 10.7809C19.8378 10.4709 19.9746 9.7898 20.0421 9.54728C20.166 9.48986 20.2883 9.43338 20.405 9.43338C20.683 9.43338 20.6492 9.6759 20.6384 9.77253C20.6265 9.93475 20.5252 10.4646 20.4214 10.9195L20.352 11.2132C20.3037 11.43 20.2507 11.6408 20.2024 11.8558L20.2234 11.8987C20.7859 11.8686 20.9575 11.8686 21.4379 11.8768L21.4944 11.8331C21.5812 11.3289 21.6066 11.194 21.7607 10.4599L21.8382 10.1227C21.9887 9.46255 22.0644 9.12784 21.9505 8.85521C21.83 8.54967 21.541 8.47591 21.2757 8.47591ZM24.0064 9.16703C23.7074 9.22445 23.5167 9.26273 23.3272 9.28747C23.1393 9.31758 22.9561 9.34489 22.6671 9.38504L22.6442 9.40581L22.6232 9.42238C22.5931 9.63759 22.5721 9.82363 22.5322 10.0423C22.4983 10.2685 22.4463 10.5255 22.3615 10.8948C22.296 11.1774 22.2621 11.2759 22.2248 11.3754C22.1884 11.4748 22.1482 11.5714 22.0744 11.8494L22.0917 11.8751L22.1062 11.8987C22.3763 11.8858 22.5529 11.8767 22.7345 11.8751C22.9159 11.8686 23.1038 11.8751 23.3946 11.8767L23.4201 11.856L23.4474 11.8331C23.4894 11.5824 23.4957 11.515 23.5214 11.3926C23.5468 11.2615 23.5907 11.0799 23.6983 10.5948C23.7492 10.367 23.8059 10.1399 23.8587 9.90742C23.9135 9.67587 23.9709 9.44783 24.0256 9.22001L24.0174 9.19247L24.0064 9.16703ZM24.0128 8.23519C23.7411 8.07483 23.2642 8.12572 22.9433 8.34723C22.6233 8.5643 22.5869 8.87241 22.8576 9.03487C23.1247 9.19079 23.6034 9.14434 23.9215 8.92096C24.2408 8.69922 24.2808 8.39391 24.0128 8.23519ZM25.6559 11.9489C26.2056 11.9489 26.7691 11.7975 27.1932 11.3479C27.5195 10.9833 27.6691 10.4408 27.7209 10.2175C27.8897 9.47707 27.7583 9.13139 27.5933 8.92084C27.3426 8.5999 26.8996 8.49696 26.44 8.49696C26.1636 8.49696 25.5054 8.52427 24.9912 8.99834C24.6219 9.34029 24.4513 9.80432 24.3483 10.2492C24.2445 10.7025 24.125 11.5185 24.8754 11.8222C25.1069 11.9216 25.4407 11.9489 25.6559 11.9489ZM25.613 10.2831C25.7397 9.72239 25.8893 9.25183 26.2712 9.25183C26.5704 9.25183 26.5922 9.60195 26.4591 10.1645C26.4353 10.2894 26.3261 10.7536 26.1783 10.9513C26.0751 11.0972 25.9531 11.1857 25.8181 11.1857C25.778 11.1857 25.5392 11.1857 25.5355 10.8311C25.5336 10.6561 25.5693 10.4773 25.613 10.2831ZM29.0951 11.8768L29.138 11.8332C29.1989 11.5104 29.209 11.4345 29.3439 10.781C29.4113 10.471 29.5509 9.78987 29.6165 9.54735C29.7407 9.4897 29.8609 9.43321 29.9813 9.43321C30.2575 9.43321 30.2239 9.67573 30.2129 9.77237C30.2029 9.93482 30.1015 10.4644 29.9958 10.9194L29.9302 11.213C29.88 11.4301 29.8254 11.6406 29.7771 11.8558L29.7981 11.8988C30.3625 11.8687 30.5275 11.8687 31.0107 11.8768L31.0691 11.8332C31.1538 11.3288 31.1767 11.1939 31.3354 10.46L31.411 10.1225C31.5623 9.46239 31.6388 9.12791 31.5268 8.85528C31.4028 8.54974 31.112 8.47598 30.8503 8.47598C30.6769 8.47598 30.3588 8.51776 30.0761 8.65734C29.975 8.71033 29.8737 8.77125 29.7743 8.8324L29.8609 8.49699L29.8144 8.44027C29.2118 8.56258 29.0741 8.57891 28.5178 8.65734L28.4751 8.68839C28.4077 9.22454 28.3528 9.62742 28.1131 10.6815C28.0218 11.0699 27.9271 11.4621 27.8323 11.8495L27.8577 11.8988C28.4294 11.8687 28.6 11.8687 29.0951 11.8768ZM33.2418 11.8987C33.2773 11.7255 33.4881 10.6989 33.4899 10.6989C33.4899 10.6989 33.6694 9.94568 33.6804 9.91837C33.6804 9.91837 33.7369 9.83994 33.7934 9.8089H33.8765C34.6605 9.8089 35.5458 9.8089 36.2398 9.29842C36.712 8.94829 37.0348 8.43128 37.1788 7.80293C37.2162 7.64887 37.2437 7.46564 37.2437 7.28241C37.2437 7.04176 37.1954 6.80368 37.0558 6.61764C36.7019 6.12257 35.9973 6.11347 35.1838 6.10973C35.1812 6.10973 34.7828 6.11347 34.7828 6.11347C33.7415 6.1263 33.324 6.12257 33.1524 6.10156C33.1379 6.17742 33.1106 6.31234 33.1106 6.31234C33.1106 6.31234 32.7376 8.04101 32.7376 8.04381C32.7376 8.04381 31.845 11.7192 31.803 11.8924C32.7122 11.8814 33.0849 11.8814 33.2418 11.8987ZM33.9329 8.82785C33.9329 8.82785 34.3295 7.10268 34.3277 7.10922L34.3405 7.02075L34.3461 6.95329L34.5046 6.96963C34.5046 6.96963 35.3225 7.03989 35.3416 7.04176C35.6644 7.16664 35.7975 7.48852 35.7046 7.90866C35.6198 8.29263 35.3708 8.61544 35.0508 8.77137C34.7872 8.90348 34.4644 8.91445 34.1318 8.91445H33.9166L33.9329 8.82785ZM36.4021 10.315C36.2973 10.7618 36.1769 11.5778 36.9236 11.8686C37.1616 11.9699 37.375 12 37.5918 11.9891C37.8208 11.9767 38.033 11.8619 38.2295 11.6966C38.2118 11.7645 38.194 11.8324 38.1763 11.9006L38.2101 11.9442C38.7472 11.9216 38.9139 11.9216 39.4958 11.926L39.5485 11.8859C39.6335 11.3864 39.7136 10.9013 39.9344 9.94575C40.042 9.48802 40.1493 9.03473 40.2598 8.57887L40.2425 8.52868C39.6417 8.64002 39.4811 8.66383 38.9031 8.74576L38.8593 8.78147C38.8534 8.82792 38.8474 8.8725 38.8418 8.91709C38.7519 8.7719 38.6216 8.64796 38.4207 8.5707C38.1637 8.46963 37.5601 8.59988 37.0412 9.07231C36.6766 9.40959 36.5015 9.87175 36.4021 10.315ZM37.6639 10.3423C37.7926 9.79169 37.9403 9.3258 38.3231 9.3258C38.5652 9.3258 38.6926 9.54918 38.6667 9.93011C38.6462 10.0251 38.624 10.1252 38.5976 10.2385C38.5593 10.4021 38.5178 10.5643 38.4774 10.7268C38.4363 10.8379 38.3885 10.9427 38.3359 11.0125C38.2374 11.152 38.0031 11.2386 37.8682 11.2386C37.8299 11.2386 37.5937 11.2386 37.5855 10.8904C37.5837 10.717 37.6194 10.5384 37.6639 10.3423ZM44.2534 8.52423L44.2069 8.47124C43.6124 8.59168 43.5048 8.61082 42.9586 8.68458L42.9185 8.72473C42.9166 8.73126 42.915 8.7413 42.9122 8.7504L42.9103 8.7413C42.5037 9.6794 42.5156 9.47703 42.1846 10.2156C42.1827 10.1819 42.1827 10.1609 42.1809 10.1252L42.098 8.52423L42.046 8.47124C41.4232 8.59168 41.4085 8.61082 40.8334 8.68458L40.7886 8.72473C40.7823 8.74387 40.7823 8.76488 40.7785 8.78775L40.7823 8.79592C40.8541 9.16332 40.8369 9.08139 40.909 9.66119C40.9426 9.94572 40.9874 10.2319 41.021 10.5129C41.0778 10.9833 41.1095 11.2148 41.1788 11.9326C40.7904 12.5735 40.6985 12.816 40.3245 13.3786L40.3271 13.3842L40.0638 13.8006C40.0337 13.8445 40.0064 13.8746 39.9681 13.8874C39.9261 13.9082 39.8715 13.9119 39.7956 13.9119H39.6497L39.4329 14.6332L40.1768 14.646C40.6135 14.6441 40.888 14.4399 41.0357 14.1654L41.5035 13.3639H41.496L41.5453 13.3074C41.8599 12.63 44.2534 8.52423 44.2534 8.52423ZM36.4021 17.9968H36.0865L37.2545 14.1335H37.642L37.765 13.7356L37.7769 14.1781C37.7624 14.4517 37.9776 14.6942 38.543 14.6541H39.1968L39.4218 13.9102H39.1758C39.0343 13.9102 38.9687 13.8745 38.9769 13.7979L38.965 13.3476H37.7543V13.35C37.3628 13.3581 36.1939 13.3875 35.9572 13.4506C35.6708 13.5243 35.369 13.7414 35.369 13.7414L35.4876 13.343H34.355L34.119 14.1335L32.9354 18.0559H32.7057L32.4805 18.7944H34.7362L34.6606 19.0406H35.7721L35.8459 18.7944H36.1577L36.4021 17.9968ZM35.4766 14.9185C35.2952 14.9687 34.9577 15.1209 34.9577 15.1209L35.2579 14.1335H36.1577L35.9406 14.8529C35.9406 14.8529 35.6626 14.8693 35.4766 14.9185ZM35.4939 16.329C35.4939 16.329 35.2112 16.3645 35.0252 16.4065C34.8419 16.4621 34.4983 16.6372 34.4983 16.6372L34.8083 15.6097H35.7128L35.4939 16.329ZM34.9897 18.0059H34.0871L34.3487 17.1388H35.2485L34.9897 18.0059ZM37.1634 15.6097H38.4644L38.2775 16.2151H36.9591L36.7612 16.8771H37.9147L37.0413 18.107C36.9802 18.1973 36.9253 18.2293 36.8644 18.2547C36.8032 18.2858 36.7229 18.3222 36.63 18.3222H36.31L36.0901 19.0472H36.9272C37.3623 19.0472 37.6192 18.8492 37.809 18.5894L38.408 17.7697L38.5366 18.602C38.5639 18.758 38.6759 18.8492 38.7518 18.8847C38.8356 18.9267 38.9222 18.9988 39.0445 19.0096C39.1757 19.0152 39.2704 19.0196 39.3334 19.0196H39.7447L39.9917 18.2083H39.8295C39.7363 18.2083 39.576 18.1926 39.5487 18.1635C39.5213 18.128 39.5213 18.0734 39.5066 17.9903L39.3762 17.156H38.8419L39.0762 16.8771H40.392L40.5944 16.2151H39.3762L39.5659 15.6097H40.7804L41.0056 14.863H37.3849L37.1634 15.6097ZM26.1746 18.1745L26.4783 17.1643H27.7264L27.9544 16.4129H26.7052L26.8959 15.7911H28.1166L28.3428 15.0635H25.2883L25.0668 15.7911H25.7608L25.5757 16.4129H24.8799L24.6493 17.1771H25.343L24.9382 18.5136C24.8836 18.6906 24.9639 18.758 25.0148 18.8402C25.0668 18.9203 25.1196 18.9732 25.2382 19.0034C25.3605 19.0307 25.4443 19.047 25.5582 19.047H26.9652L27.2159 18.2146L26.5922 18.3003C26.4718 18.3003 26.1382 18.2858 26.1746 18.1745ZM26.3178 13.3384L26.0015 13.91C25.9338 14.0349 25.8729 14.1124 25.818 14.1481C25.7697 14.1782 25.674 14.1908 25.5354 14.1908H25.3703L25.1498 14.9221H25.6978C25.9613 14.9221 26.1637 14.8255 26.2604 14.7772C26.3642 14.7216 26.3915 14.7534 26.4718 14.6759L26.6569 14.5155H28.3683L28.5954 13.7541H27.3427L27.5614 13.3384H26.3178ZM28.8444 18.1892C28.8152 18.1472 28.8362 18.0732 28.8808 17.9191L29.3485 16.3709H31.0125C31.2551 16.3674 31.4301 16.3646 31.544 16.3564C31.6663 16.3436 31.7994 16.2999 31.9443 16.2215C32.094 16.1393 32.1705 16.0527 32.2352 15.9533C32.3073 15.8541 32.4231 15.637 32.5225 15.3023L33.1105 13.343L31.3837 13.353C31.3837 13.353 30.852 13.4315 30.6178 13.5181C30.3816 13.6147 30.0441 13.8845 30.0441 13.8845L30.2 13.3474H29.1333L27.6399 18.3003C27.5869 18.4926 27.5515 18.6322 27.5433 18.716C27.5405 18.8063 27.6572 18.8957 27.7328 18.9632C27.8222 19.0306 27.9543 19.0197 28.0811 19.0306C28.2144 19.0407 28.4039 19.047 28.6656 19.047H29.4853L29.7369 18.1973L29.0031 18.2667C28.9246 18.2667 28.8679 18.2247 28.8444 18.1892ZM29.6503 15.3252H31.3981L31.287 15.6734C31.2714 15.6816 31.2341 15.6562 31.0562 15.6772H29.5427L29.6503 15.3252ZM30.0005 14.1572H31.763L31.6362 14.5766C31.6362 14.5766 30.8055 14.5684 30.6725 14.593C30.0871 14.6943 29.7451 15.007 29.7451 15.007L30.0005 14.1572ZM31.3262 16.8396C31.3117 16.8917 31.2888 16.9234 31.2568 16.9472C31.2214 16.9701 31.1639 16.9783 31.0783 16.9783H30.8292L30.8439 16.5542H29.808L29.766 18.6276C29.7644 18.7772 29.7789 18.8638 29.8883 18.9331C29.9978 19.0197 30.3351 19.0307 30.7891 19.0307H31.4382L31.6726 18.2546L31.1075 18.2856L30.9196 18.2966C30.8939 18.2857 30.8694 18.2756 30.8421 18.2483C30.8182 18.2247 30.7781 18.2392 30.7846 18.0896L30.7891 17.5581L31.3817 17.5336C31.7017 17.5336 31.8385 17.4295 31.9552 17.3303C32.0666 17.2353 32.103 17.126 32.145 16.9783L32.2444 16.5077H31.43L31.3262 16.8396Z" fill="#FEFEFE"/>
</svg>
