<svg width="16" height="16" viewBox="0 0 16 16" fill="none" xmlns="http://www.w3.org/2000/svg">
<path d="M10.5169 3.45789C10.0535 2.99421 9.50326 2.62639 8.89766 2.37543C8.29205 2.12448 7.64293 1.99532 6.98739 1.99532C6.33185 1.99532 5.68273 2.12448 5.07712 2.37543C4.47152 2.62639 3.92129 2.99421 3.45789 3.45789C2.99406 3.92131 2.62612 4.4716 2.37507 5.07729C2.12403 5.68299 1.99481 6.33223 1.99481 6.98789C1.99481 7.64355 2.12403 8.29279 2.37507 8.89848C2.62612 9.50418 2.99406 10.0545 3.45789 10.5179C3.92131 10.9817 4.4716 11.3497 5.0773 11.6007C5.68299 11.8518 6.33223 11.981 6.98789 11.981C7.64355 11.981 8.29279 11.8518 8.89848 11.6007C9.50418 11.3497 10.0545 10.9817 10.5179 10.5179C10.9817 10.0545 11.3497 9.50418 11.6007 8.89848C11.8518 8.29279 11.981 7.64355 11.981 6.98789C11.981 6.33223 11.8518 5.68299 11.6007 5.07729C11.3497 4.4716 10.9817 3.92131 10.5179 3.45789M15.7079 15.7079C15.5204 15.8951 15.2663 16.0002 15.0014 16.0002C14.7365 16.0002 14.4824 15.8951 14.2949 15.7079L11.1519 12.5639C8.41489 14.6099 4.53389 14.4159 2.04689 11.9289C1.39795 11.2801 0.883181 10.5098 0.531973 9.66199C0.180765 8.8142 0 7.90554 0 6.98789C0 6.07024 0.180765 5.16157 0.531973 4.31379C0.883181 3.46601 1.39795 2.69571 2.04689 2.04689C2.69571 1.39795 3.46601 0.883183 4.31379 0.531975C5.16157 0.180766 6.07024 0 6.98789 0C7.90554 0 8.81421 0.180766 9.66199 0.531975C10.5098 0.883183 11.2801 1.39795 11.9289 2.04689C14.4159 4.53389 14.6089 8.41489 12.5639 11.1519L15.7079 14.2959C15.895 14.4832 16.0001 14.7371 16.0001 15.0019C16.0001 15.2666 15.895 15.5206 15.7079 15.7079Z" fill="#708C8C"/>
</svg>
