<svg width="17" height="16" viewBox="0 0 17 16" fill="none" xmlns="http://www.w3.org/2000/svg">
<path d="M8.06006 16C12.4783 16 16.0601 12.4183 16.0601 8C16.0601 3.58172 12.4783 0 8.06006 0C3.64178 0 0.0600586 3.58172 0.0600586 8C0.0600586 12.4183 3.64178 16 8.06006 16Z" fill="#599EFF"/>
<path d="M4.68505 12.75C4.33506 12.75 4.06006 12.475 4.06006 12.125V4.625C4.06006 4.275 4.33506 4 4.68505 4C5.03505 4 5.31006 4.275 5.31006 4.625V12.125C5.31006 12.475 5.03505 12.75 4.68505 12.75Z" fill="white" stroke="white" stroke-width="0.888889"/>
<path d="M10.885 6.47656L12.7351 4.62656C12.9601 4.40156 12.8101 3.97656 12.4601 3.97656H4.06006V9.4766H12.4601C12.785 9.4766 12.9601 9.0766 12.7351 8.82656L10.885 6.97656C10.7351 6.87656 10.7351 6.62656 10.885 6.47656Z" fill="white" stroke="white" stroke-width="0.888889"/>
</svg>
