<svg width="56" height="24" viewBox="0 0 56 24" fill="none" xmlns="http://www.w3.org/2000/svg">
<path d="M26.5112 11.751V18.1529H24.4802V2.34286H29.8667C31.1654 2.31574 32.4211 2.80847 33.3547 3.71156C34.2993 4.56129 34.8305 5.77773 34.8117 7.04817C34.8387 8.32566 34.3066 9.55131 33.3547 10.4037C32.4128 11.3019 31.2502 11.7506 29.8667 11.7497H26.5112V11.751ZM26.5112 4.28932V9.80828H29.9172C30.6722 9.83061 31.4017 9.53391 31.9267 8.99084C33.015 7.93271 33.015 6.18507 31.9267 5.12694C31.4081 4.57214 30.6763 4.26674 29.9172 4.28806H26.5112V4.28932Z" fill="#5F6368"/>
<path d="M39.4919 6.98242C40.993 6.98242 42.1779 7.38357 43.0467 8.18587C43.9155 8.98817 44.3494 10.0882 44.3486 11.4859V18.1528H42.4059V16.6516H42.3176C41.4766 17.8879 40.3581 18.506 38.9621 18.506C37.7703 18.506 36.7734 18.1528 35.9711 17.4464C35.1914 16.7898 34.7492 15.8165 34.7676 14.7973C34.7676 13.678 35.1906 12.7877 36.0367 12.1267C36.8828 11.4657 38.0122 11.1343 39.425 11.1327C40.631 11.1327 41.6241 11.3534 42.4046 11.795V11.3307C42.4093 10.6359 42.1012 9.97591 41.5657 9.53313C41.0286 9.04859 40.3287 8.78419 39.6054 8.79264C38.471 8.79264 37.5732 9.27112 36.9122 10.2282L35.1234 9.1017C36.1073 7.68885 37.5635 6.98242 39.4919 6.98242ZM36.8642 14.8414C36.8614 15.3658 37.1123 15.8593 37.5378 16.166C37.9871 16.5193 38.5445 16.7065 39.116 16.6958C39.973 16.6944 40.7945 16.3532 41.4005 15.7472C42.0732 15.1139 42.4097 14.3709 42.4097 13.5181C41.7764 13.0135 40.8934 12.7612 39.7606 12.7612C38.9356 12.7612 38.2477 12.9602 37.6968 13.3579C37.1405 13.7616 36.8642 14.2523 36.8642 14.8414Z" fill="#5F6368"/>
<path d="M55.4999 7.33594L48.7182 22.9215H46.6216L49.1383 17.4681L44.679 7.33594H46.8865L50.1096 15.1066H50.1538L53.2885 7.33594H55.4999Z" fill="#5F6368"/>
<path d="M18.3041 10.3702C18.3049 9.75136 18.2525 9.13349 18.1477 8.52344H9.58228V12.0215H14.4882C14.2853 13.1505 13.63 14.1476 12.6742 14.7816V17.0523H15.602C17.3164 15.4717 18.3041 13.1341 18.3041 10.3702Z" fill="#4285F4"/>
<path d="M9.58212 19.2467C12.0332 19.2467 14.0969 18.4418 15.6019 17.0542L12.674 14.7836C11.8591 15.3361 10.8095 15.6515 9.58212 15.6515C7.21307 15.6515 5.20227 14.0544 4.48323 11.9023H1.46704V14.2424C3.00882 17.3103 6.14863 19.2465 9.58212 19.2467Z" fill="#34A853"/>
<path d="M4.4833 11.9007C4.10322 10.7729 4.10322 9.55178 4.4833 8.42402V6.08398H1.46711C0.17763 8.64995 0.17763 11.6747 1.46711 14.2407L4.4833 11.9007Z" fill="#FBBC04"/>
<path d="M9.58212 4.67588C10.8774 4.65469 12.1289 5.14414 13.0663 6.03828L15.6587 3.44594C14.0148 1.90202 11.8371 1.05431 9.58212 1.08068C6.14863 1.0808 3.00882 3.01704 1.46704 6.08495L4.48323 8.42499C5.20227 6.27291 7.21307 4.67588 9.58212 4.67588Z" fill="#EA4335"/>
</svg>
